<svg xmlns="http://www.w3.org/2000/svg" width="184" height="119" fill="none" viewBox="0 0 184 119">
  <path fill="#E8E8E8" d="M53.199 94.788a6.264 6.264 0 0 1-1.695 3.516c-.164.177.101.443.266.266a6.599 6.599 0 0 0 1.783-3.693c.038-.228-.329-.33-.354-.089Z"/>
  <path fill="#E8E8E8" d="M53.25 95.003a11.648 11.648 0 0 0 1.898 2.972c.164.19.43-.088.265-.265a10.696 10.696 0 0 1-1.834-2.897c-.088-.227-.417-.038-.328.19Zm-1.379 3.491c-.012-.026-.038-.064-.05-.089l-.304.228a7.969 7.969 0 0 1 1.96 2.529c.102.215.43.026.33-.189a8.286 8.286 0 0 0-2.012-2.618c-.164-.14-.404.037-.303.227.013.026.038.063.05.089.114.227.443.038.33-.177Z"/>
  <path fill="#E8E8E8" d="M53.845 101.049a17.141 17.141 0 0 1 1.53-2.947c.127-.203-.19-.392-.329-.19a17.79 17.79 0 0 0-1.568 3.048c-.089.215.278.316.367.089ZM10.185 52.85c-.442 1.264-.91 2.529-1.77 3.578-.152.19.114.456.265.266.898-1.1 1.404-2.416 1.872-3.744.076-.227-.29-.328-.367-.1Z"/>
  <path fill="#E8E8E8" d="M10.185 52.95c.279.62.367 1.34.582 1.986.203.594.443 1.176.721 1.745.101.215.43.025.33-.19a14.572 14.572 0 0 1-.823-2.087c-.164-.543-.253-1.125-.48-1.644-.102-.227-.418-.025-.33.19Zm-1.682 3.731c.367.152.62.873.771 1.214.228.494.392 1 .519 1.53.063.241.43.14.367-.1a9.864 9.864 0 0 0-.683-1.885c-.203-.417-.418-.936-.873-1.126-.228-.1-.316.266-.101.367Z"/>
  <path fill="#E8E8E8" d="M10.172 59.501c.443-.973.962-1.91 1.543-2.807.14-.203-.19-.392-.328-.19a21.62 21.62 0 0 0-1.543 2.808c-.102.227.227.417.329.19Zm15.76-28.203a7.168 7.168 0 0 1-1.48 2.77c-.165.19.114.455.265.265a7.533 7.533 0 0 0 1.581-2.934c.064-.228-.303-.329-.366-.101Z"/>
  <path fill="#E8E8E8" d="M25.906 31.487c.228.949.456 2.062 1.088 2.833.152.19.417-.076.266-.265-.582-.696-.785-1.796-.987-2.656-.05-.253-.417-.152-.367.088Zm-1.543 2.947c.342.19.62.949.785 1.303.227.48.404.974.543 1.48.064.24.43.139.367-.102a10.926 10.926 0 0 0-.67-1.758c-.19-.392-.43-1.037-.835-1.264-.215-.101-.405.215-.19.341Z"/>
  <path fill="#E8E8E8" d="M26.083 37.128a18.52 18.52 0 0 1 1.177-2.782c.113-.215-.215-.405-.33-.19-.48.923-.885 1.884-1.213 2.87-.076.228.29.33.366.102Zm79.389 29.949c-.278.709-.582 1.43-1.202 1.91-.189.152.076.418.266.266.67-.519.999-1.303 1.29-2.075.101-.227-.265-.328-.354-.1Z"/>
  <path fill="#E8E8E8" d="M105.611 67.267c.19.645.481 1.24.885 1.77.14.19.481 0 .329-.189a5.147 5.147 0 0 1-.847-1.682c-.076-.24-.443-.14-.367.101Zm-1.265 2.023c.418.52.709 1.101.886 1.733.063.24.43.14.366-.1a5.186 5.186 0 0 0-.986-1.91c-.152-.178-.417.088-.266.278Z"/>
  <path fill="#E8E8E8" d="M105.586 71.15c.341-.772.758-1.493 1.264-2.163.152-.19-.177-.38-.329-.19-.505.67-.935 1.392-1.264 2.163-.101.215.227.405.329.19Zm22.828 25.307a6.003 6.003 0 0 1-1.163 2.024c-.165.19.114.455.265.265a6.433 6.433 0 0 0 1.265-2.188c.076-.227-.291-.328-.367-.1Z"/>
  <path fill="#E8E8E8" d="M128.389 96.774c.177.329.215.72.367 1.075.139.329.316.632.531.923.139.19.468 0 .329-.19a3.915 3.915 0 0 1-.569-1.037c-.114-.316-.165-.657-.329-.96-.114-.216-.443-.026-.329.189Z"/>
  <path fill="#E8E8E8" d="M127.263 98.646c.316.48.557.986.721 1.543.038.151.266.202.342.05a3.461 3.461 0 0 1 1.125-1.328c.203-.139.013-.468-.189-.329a4.032 4.032 0 0 0-1.265 1.468c.114.012.227.025.341.05a6.388 6.388 0 0 0-.759-1.631c-.126-.215-.455-.026-.316.177Z"/>
  <path stroke="#E8E8E8" stroke-width=".5" d="m132.36 45.438-1.303-.506-1.151.771.076-1.391-1.1-.86 1.353-.354.481-1.316.759 1.19 1.391.05-.885 1.075.379 1.34Z" clip-rule="evenodd"/>
  <path fill="#E8E8E8" d="M130.134 41.049a40.01 40.01 0 0 1 7.032-8.803c.177-.164-.089-.43-.266-.265a40.115 40.115 0 0 0-7.095 8.878c-.126.215.202.405.329.19Zm2.732-.632a47.074 47.074 0 0 1 11.459-11.914c.19-.14.013-.468-.19-.33a47.5 47.5 0 0 0-11.585 12.054c-.152.202.177.392.316.19Zm.683 3.642a75.296 75.296 0 0 1 4.743-5.287c.177-.177-.101-.442-.265-.265a71.965 71.965 0 0 0-4.743 5.286c-.152.177.114.456.265.266Zm-43.318-22.74c-1.012-2.062 1.164-4.022 3.036-4.35 2.327-.405 4.755.404 7.082.594a34.362 34.362 0 0 0 13.166-1.493 34.746 34.746 0 0 0 6.147-2.643c2.099-1.151 4.11-2.454 6.222-3.58 2.113-1.138 4.364-2.099 6.754-2.49 2.353-.393 4.692-.09 6.893.809 2.062.847 4.161 2.112 5.767 3.667 1.657 1.607 2.188 3.782 1.24 5.932-1.897 4.262-7.374 4.907-11.471 5.072-4.414.177-8.942-.253-13.242.96-4.364 1.24-7.602 4.44-11.396 6.73-3.87 2.34-8.36 3.945-12.938 3.642-3.858-.253-7.753-2.05-10.169-5.122a11.133 11.133 0 0 1-1.467-2.48c-.101-.227-.43-.025-.329.19 1.581 3.63 4.97 6.134 8.702 7.21 4.313 1.239 8.904.442 12.938-1.328 2.239-.987 4.3-2.277 6.286-3.706 1.935-1.392 3.857-2.859 6.02-3.87 4.579-2.15 9.764-1.708 14.671-1.834 4.085-.101 9.334-.456 11.977-4.073 1.101-1.505 1.632-3.541.974-5.35-.733-1.973-2.63-3.275-4.325-4.363-1.948-1.252-4.111-2.251-6.412-2.555-2.391-.329-4.806.127-7.058.949-4.78 1.758-8.777 5.084-13.495 6.981a33.853 33.853 0 0 1-14.367 2.416 34.983 34.983 0 0 1-3.971-.443c-1.151-.19-2.315-.392-3.491-.316-1.821.114-3.605 1.024-4.237 2.833a2.77 2.77 0 0 0 .126 2.175c.152.24.468.051.367-.164Z"/>
  <path fill="#E8E8E8" d="M95.77 19.814c6.539.86 13.255.19 19.49-1.96 6.021-2.075 11.51-6.21 17.985-6.754 3.225-.279 6.602.366 9.094 2.542.177.164.455-.101.265-.266-4.502-3.946-11.028-2.972-16.125-.885-3.112 1.264-6.058 2.921-9.17 4.199a42.273 42.273 0 0 1-21.526 2.757c-.253-.05-.253.329-.012.367Zm9.979 7.31c2.543-.202 4.807-1.379 6.969-2.643 2.365-1.379 4.667-2.783 7.361-3.415 5.805-1.354 11.851.164 17.681-1.05 2.593-.544 5.73-2.125 5.477-5.249-.026-.24-.405-.24-.38 0 .253 3.2-3.174 4.528-5.742 4.983-2.808.494-5.678.418-8.512.367-2.731-.05-5.501-.076-8.195.493-2.492.519-4.68 1.657-6.855 2.935-2.441 1.429-4.933 2.972-7.816 3.2-.228.012-.228.392.012.379Zm9.917 2.858c2.922-2.049 6.046-3.933 9.536-4.818 3.795-.962 7.741-.645 11.598-.342.24.025.24-.354 0-.38-3.895-.316-7.879-.619-11.699.355-3.516.898-6.678 2.782-9.625 4.857-.202.151-.012.48.19.328Zm-79.718-7.069c-.758-.494-1.404-1.19-1.618-2.1-.203-.847.088-1.846.834-2.352.759-.519 1.758-.291 2.618-.354a6.11 6.11 0 0 0 2.011-.506c2.871-1.227 4.63-3.959 6.792-6.058 1.1-1.063 2.416-2.1 3.946-2.441 1.416-.317 3.3.025 3.655 1.682.417 1.935-1.379 3.364-2.782 4.312-1.607 1.076-3.213 2.138-4.82 3.213-1.745 1.163-3.465 2.39-5.26 3.478-1.67 1.024-3.782 1.834-5.629.746-.215-.126-.404.202-.19.329 1.518.898 3.327.632 4.857-.101 1.973-.936 3.782-2.365 5.59-3.567 1.885-1.252 3.77-2.491 5.654-3.756 1.378-.923 2.833-2.074 2.997-3.858.14-1.492-.872-2.63-2.314-2.883-1.556-.278-3.086.367-4.338 1.24-3.074 2.15-4.87 5.994-8.474 7.41a6.051 6.051 0 0 1-1.682.405c-.557.038-1.113-.025-1.67.038-.834.089-1.517.494-1.91 1.24-.847 1.619.165 3.326 1.556 4.224.19.114.38-.202.177-.341ZM46.825 7.495c-.24-1.657 1.834-2.137 2.96-2.668.582-.279 1.1-.645 1.631-1 .266-.177.532-.354.81-.505.329-.178.733-.456 1.011-.102.203.253.114.317-.012.595-.063.126-.127.265-.203.392a4.437 4.437 0 0 1-.632.898c-.518.544-1.265.62-1.935.885a9.13 9.13 0 0 0-1.492.746c-.595.38-1.341 1.227-2.1.797-.215-.126-.404.202-.19.329.67.38 1.303.038 1.872-.367a9.567 9.567 0 0 1 2.833-1.404c.822-.253 1.341-.67 1.809-1.404.266-.417.873-1.277.48-1.783-.354-.442-1.037-.202-1.454 0-.885.455-1.644 1.113-2.542 1.556-1.353.657-3.503 1.189-3.225 3.149.05.228.417.127.38-.114Z"/>
  <path fill="#E8E8E8" d="M36.593 20.623c-.392-.063-.341-.405-.253-.632.114-.279.355-.38.633-.468.303-.089.645-.101.961-.14a9.468 9.468 0 0 0 2.049-.569c1.265-.518 2.416-1.264 3.478-2.112 1.202-.96 2.29-2.036 3.415-3.086 1.1-1.037 2.327-2.34 3.959-2.289l-.19-.19c.139 1.48-1.227 2.467-2.302 3.226-1.29.91-2.568 1.833-3.858 2.744-1.188.847-2.365 1.733-3.579 2.53-.607.392-1.24.771-1.922 1.024-.658.24-1.682.607-2.226-.013-.165-.177-.43.089-.266.266.86.974 2.593.177 3.516-.304 1.594-.822 3.023-1.998 4.49-3.035 1.518-1.088 3.073-2.137 4.579-3.263 1.024-.772 2.099-1.796 1.973-3.187-.013-.101-.076-.19-.19-.19-1.708-.05-2.998 1.24-4.149 2.327-1.454 1.366-2.858 2.795-4.502 3.92-.784.532-1.619 1-2.504 1.341-.86.33-1.72.43-2.618.608-.519.1-1.05.341-1.151.91-.076.43.126.886.594.961.203.026.316-.341.063-.379ZM25.994 41.441c-.392.632-.202 1.467.38 1.935.86.683 1.783-.05 2.517-.544.607-.417 1.48-.695 1.897.114.19.38.253.822.43 1.214.126.291.303.544.607.67.582.254 1.15-.19 1.745-.1.24.037.342-.33.102-.367-.43-.064-.772.088-1.19.151-.708.089-.897-.38-1.074-.936-.178-.556-.342-1.201-.924-1.454-.746-.329-1.505.202-2.1.607-.48.341-1.112.771-1.707.405-.493-.316-.657-1-.354-1.493.127-.227-.202-.417-.329-.202Zm7.286-.746c-.253.67.228 1.226.835 1.454.531.202 3.313.341 3.162 1.201-.038.24.316.342.367.102.366-1.96-4.693-.822-3.997-2.656.088-.228-.278-.33-.367-.101Zm6.361 49.553c.24.379.645.24.822-.127.405-.822.38-1.796 1.29-2.314.949-.544 1.556.354 2.454.455.696.076 1.379-.291 1.847-.772.569-.594.872-1.378 1.264-2.1.228-.416.532-.632.962-.29.139.114.252.253.379.367.177.151.367.29.594.38 1.088.467 2.429.025 3.01-.987.127-.215-.202-.405-.328-.19a1.996 1.996 0 0 1-1.746.986c-.834 0-1.163-.493-1.783-.936-1.164-.834-1.67 1.063-2.1 1.796-.493.823-1.353 1.645-2.39 1.29-.582-.202-1.024-.632-1.682-.543-.544.063-1.012.404-1.328.834a3.8 3.8 0 0 0-.417.772c-.076.19-.14.38-.203.582-.025.063-.24.695-.303.607-.152-.203-.48-.013-.342.19Zm8.095-1.505c.177-1.43 2.226-.405 2.985-.33.708.077 1.315-.164 1.656-.809.228-.442.304-.986.86-1.176.456-.152 1-.05 1.468-.114a5.54 5.54 0 0 0 2.403-.96c.202-.14.012-.469-.19-.33a5.355 5.355 0 0 1-1.644.797c-.582.152-1.139.14-1.733.19-.936.088-1.088.683-1.48 1.416-.72 1.328-2.238.152-3.326.19-.683.025-1.277.443-1.366 1.138-.05.228.329.228.367-.012Zm7.272-28.811a2.908 2.908 0 0 1-.986 1.897c-.177.164.088.43.265.265a3.271 3.271 0 0 0 1.1-2.162c.026-.24-.354-.24-.379 0Z"/>
  <path fill="#E8E8E8" d="M55.173 60.4c.101.594.405 1.138.873 1.53.19.164.455-.114.265-.266a2.232 2.232 0 0 1-.771-1.366c-.038-.24-.405-.139-.367.102Zm-1.202 1.998c.418.493.683 1.062.797 1.695.05.24.417.139.367-.102a4.117 4.117 0 0 0-.898-1.859c-.152-.19-.418.089-.266.266Z"/>
  <path fill="#E8E8E8" d="M55.337 64.016a4.66 4.66 0 0 1 .848-1.72c.151-.19-.114-.455-.266-.265a4.829 4.829 0 0 0-.949 1.884c-.063.24.304.342.367.101Zm49.034 20.742c-.101.785.557 1.366 1.315 1.43 1.328.088 2.125-1.354 3.365-1.581.923-.165 1.264.569 1.758 1.176.291.341.657.594 1.087.72a2.423 2.423 0 0 0 2.467-.657c.164-.177-.102-.443-.266-.266-.645.696-1.745.873-2.555.342-.721-.455-.91-1.442-1.783-1.682-.784-.215-1.568.228-2.175.67-.392.291-.785.607-1.253.772-.581.202-1.694.038-1.568-.835 0-.228-.354-.329-.392-.088Zm4.503 3.82c.923-.468 1.998-.531 2.947-.127.695.304 1.214.848 2.023.81.721-.025 1.366-.417 1.986-.759.771-.417 2.264-.961 2.669.24.075.228.442.127.366-.1-.227-.646-.834-1-1.505-1.025-1.037-.026-1.859.746-2.782 1.087-.708.266-1.265.165-1.91-.215-.417-.253-.822-.48-1.303-.594-.923-.215-1.859-.076-2.694.341-.202.127-.012.443.203.342Zm-14.798 22.197a4.013 4.013 0 0 1-1.126 3.048l.304.227a6.225 6.225 0 0 0 .784-1.593c.076-.228-.29-.329-.367-.101a5.584 5.584 0 0 1-.746 1.505c-.126.177.152.379.304.227a4.429 4.429 0 0 0 1.226-3.313c-.012-.241-.392-.241-.379 0Z"/>
  <path fill="#E8E8E8" d="M94.089 110.825a5.631 5.631 0 0 0 1.467 2.757c.164.177.443-.088.266-.265a5.378 5.378 0 0 1-1.366-2.593c-.051-.24-.418-.139-.367.101Zm-1.189 3.567a9.23 9.23 0 0 1 1.631 2.415c.101.228.43.026.329-.189a9.048 9.048 0 0 0-1.695-2.492c-.164-.19-.43.089-.265.266Z"/>
  <path fill="#E8E8E8" d="M94.823 116.807c.404-.961.822-1.909 1.226-2.871.101-.227-.227-.417-.329-.189-.404.961-.822 1.909-1.226 2.871-.089.227.24.417.329.189Zm-33.099-2.365a15.759 15.759 0 0 0 6.058 3.693c.228.076.33-.291.101-.366a15.27 15.27 0 0 1-5.893-3.605c-.165-.164-.43.101-.266.278Zm4.161.835a15.702 15.702 0 0 0 6.462 1.91c.24.012.24-.367 0-.38a14.983 14.983 0 0 1-6.273-1.859c-.202-.127-.392.202-.19.329Zm48.377-51.728a25.485 25.485 0 0 0 2.175 7.183c.101.215.43.026.329-.19a24.877 24.877 0 0 1-2.138-7.095c-.038-.24-.404-.139-.366.102Zm8.359-6.994a38.812 38.812 0 0 0 2.062 7.019c.088.228.455.126.367-.101a39.891 39.891 0 0 1-2.062-7.02c-.051-.24-.417-.139-.367.102Zm2.542 5.767a27.112 27.112 0 0 0 3.567 6.564c.139.19.468 0 .329-.19a26.83 26.83 0 0 1-3.529-6.475c-.088-.228-.455-.127-.367.1ZM68.25 37.9a11.412 11.412 0 0 1 2.605-5.4c.164-.19-.114-.456-.266-.267a11.837 11.837 0 0 0-2.706 5.565c-.05.24.316.342.367.102Zm-1.504.038a5.353 5.353 0 0 1 1.252-2.758c.164-.19-.114-.455-.266-.265a5.72 5.72 0 0 0-1.353 2.922c-.038.227.329.341.367.1ZM93.735.324a12.267 12.267 0 0 1 2.77 5.274c.063.24.43.14.367-.101A12.688 12.688 0 0 0 94.013.058c-.164-.177-.442.089-.278.266Zm3.25 1.619a16.007 16.007 0 0 1 1.354 5.236c.025.24.404.24.379 0a16.146 16.146 0 0 0-1.404-5.426c-.101-.228-.43-.038-.329.19Z"/>
  <ellipse cx="132.512" cy="11.935" fill="#064E3B" rx="6.703" ry="6.589"/>
  <ellipse cx="129.451" cy="32.701" fill="#10B981" rx="3.63" ry="3.718"/>
  <ellipse cx="19.911" cy="19.991" fill="#10B981" rx="7.854" ry="7.702"/>
  <ellipse cx="112.478" cy="95.623" fill="#064E3B" rx="7.411" ry="7.298"/>
  <path fill="#10B981" d="M20.012 39.304c.24 0 .24-.38 0-.38s-.253.38 0 .38Z"/>
  <path fill="#10B981" d="M19.848 39.873c.974 0 .974-1.518 0-1.518s-.974 1.518 0 1.518Zm95.602-23.461c.974 0 .974-1.518 0-1.518s-.974 1.518 0 1.518Zm-3.073 49.982c.974 0 .974-1.517 0-1.517s-.974 1.517 0 1.517ZM4.14 67.76c-.582.557-.063 1.417.645 1.493.48.05 1.619-.506 1.619.29 0 .393-.101.798.114 1.152.177.29.493.43.834.417.506-.012.974-.506 1.265.101.165.354.19.67.595.848.354.164.67.063.885-.253.278-.405-.38-.784-.658-.38.089-.126-.215-.822-.316-.948a.9.9 0 0 0-.582-.367c-.253-.05-.506.025-.746.101-.38.114-.683.203-.67-.303.025-.519.076-1.088-.43-1.417-.228-.152-.506-.177-.772-.164a2.78 2.78 0 0 0-.468.076c-.114.025-1.05.139-.784-.114.354-.33-.177-.86-.531-.532Zm3.933-.417c.076.43.164.873.24 1.303.025.164.215.278.367.278.48-.013.746-.253 1.15-.455.671-.342.469.278.57.72.076.317.253.557.57.67.594.203 1.1.19 1.618.62.38.304.91-.227.531-.53-.417-.342-.872-.608-1.404-.709-.139-.025-.303-.025-.442-.101-.203-.114-.152-.177-.152-.417-.013-.203-.013-.405-.089-.607-.151-.355-.505-.532-.885-.506-.556.038-.923.582-1.467.582.126.088.24.19.367.278-.076-.43-.165-.873-.24-1.303-.09-.506-.823-.303-.734.177Z"/>
  <path fill="#064E3B" d="M51.227 15.45c.228-.303.48-.354.759-.126a.97.97 0 0 1 .228.632c.012.228-.089.443-.102.67-.012.203.013.392.177.519.355.266.835-.063 1.05-.354.101-.14.19-.405.329-.493.556-.367.519.164.62.392.076.19.177.328.354.417.62.304 1.125-.303 1.416-.771.127-.203-.202-.392-.328-.19-.19.29-.67 1.075-1.113.367-.076-.127-.064-.317-.14-.456-.1-.177-.24-.328-.455-.354-.253-.025-.468.14-.632.316-.228.24-.835 1.379-.873.405-.013-.582.127-1.265-.544-1.556-.455-.202-.974 0-1.138.468-.05.24.316.342.392.114Zm.163-1.618c.38-.355 1.076-.279 1.367.177.177.278.05.645.24.91.114.165.253.215.455.177.127-.025.19-.088.304-.151.405-.253.759-.354 1.138.05.165.177.43-.088.266-.265-.304-.33-.746-.481-1.176-.355-.228.076-.57.418-.696.165-.089-.165-.038-.417-.114-.595-.354-.758-1.43-.936-2.023-.379-.216.164.063.43.24.266Zm49.415 55.888c.127.456.291 2.29 1.176 1.936.342-.14.532-.91.823-.873.215.025.164.114.215.316.05.177.101.342.177.506.126.278.278.531.455.772.076.1.266.139.329 0 .329-.709 1.214-.57 1.366.151.05.24.417.14.366-.1-.227-1.076-1.593-1.24-2.061-.241h.329a3.786 3.786 0 0 1-.506-.885c-.089-.24-.076-.633-.215-.848-.127-.202-.354-.24-.569-.177-.329.114-.392.418-.595.658-.076.101-.341.354-.493.266-.076-.051-.139-.456-.177-.57-.089-.341-.19-.683-.278-1.024-.038-.215-.405-.114-.342.114Zm3.326.658c.266-.632.987-.354 1.189.114.089.202.152.43.342.57.544.391 1.138-.507 1.492.391.316.81 1.29 1.176 1.872.354.139-.202-.19-.392-.329-.19a.66.66 0 0 1-.733.254c-.329-.102-.38-.392-.494-.67-.076-.19-.139-.393-.303-.532-.165-.14-.354-.164-.557-.126-.114.025-.227.126-.341.151-.418.076-.493-.151-.645-.455-.392-.797-1.505-.822-1.872.038-.089.228.278.329.379.101Zm37.55-43.482c-.531-.518-.316-1.593.405-1.846.898-.304 1.632.885 1.214 1.631-.126.215.203.405.329.19.569-1-.354-2.492-1.556-2.213-1.062.252-1.429 1.77-.67 2.504.177.164.443-.101.278-.266ZM42.664 102.63c-.759-.873-.316-2.403.974-2.353 1.126.051 1.505 1.569.493 2.1-.215.114-.025.442.19.329 1.29-.683.86-2.656-.582-2.796-1.682-.164-2.352 1.822-1.353 2.985.164.19.43-.076.278-.265Zm-1.669-17.568c-.43-.341-1.316-1.24-.152-1.505.228-.05.443.05.67-.038.456-.177.607-.67.595-1.126-.013-.303-.114-.594-.177-.885-.076-.341-.228-.733.253-.746.088 0 .177.038.278.038.442 0 .759-.304.91-.696.089-.227-.278-.329-.366-.1-.304.834-1.303-.153-1.493.808-.139.747.835 2.29-.468 2.366-.518.025-.974.012-1.113.632-.139.645.354 1.126.81 1.492.164.177.442-.088.253-.24Zm2.807-1.771c-.19-.316-.506-.872-.367-1.264.152-.418.86-.38 1.19-.658.442-.367.606-.936.455-1.493-.064-.24-.43-.139-.367.102.1.354.038.695-.203.974-.24.265-.506.252-.81.366-.24.089-.442.203-.568.43-.279.557.05 1.252.341 1.733.127.202.456.013.33-.19Z"/>
  <path fill="#191D23" d="M13.107 27.617c-.354.24-1 .746-1.467.418-.519-.355.063-1.29.252-1.657.43-.835.962-1.62 1.556-2.34 1.202-1.467 2.63-2.732 4.073-3.959.366-.316-.165-.847-.532-.53-1.985 1.694-3.97 3.477-5.35 5.741-.467.772-1.34 2.062-.809 2.985.607 1.05 1.885.531 2.643.013.418-.291.038-.949-.366-.67Zm7.234-9.979 3.415-2.77c.38-.303-.165-.847-.531-.53l-3.415 2.77c-.392.303.152.834.531.53Zm6.489-4.274c.581-.304 2.694-1.543 3.073-.544.329.86-.48 2.112-1 2.744-.303.38.228.91.532.532.759-.924 1.77-2.631 1.037-3.845-.835-1.366-3.048-.064-4.035.455-.43.228-.038.885.393.658Z"/>
  <path fill="#191D23" d="M16.193 24a36.786 36.786 0 0 1 5.742-5.3c.392-.29.013-.948-.38-.657a37.42 37.42 0 0 0-5.893 5.426c-.329.354.202.898.531.531Zm91.744 65.35c.19-1.417 2.112-.81 2.896-.443a13.6 13.6 0 0 1 2.226 1.328c1.531 1.126 2.833 2.58 3.858 4.186 1.1 1.72 1.897 3.618 2.453 5.591.253.898 1.822 6.285-.417 5.704-.468-.127-.67.607-.202.733.733.19 1.441-.152 1.846-.784.481-.759.354-1.72.215-2.555-.329-2.061-.86-4.11-1.682-6.033-1.492-3.553-4.009-6.779-7.475-8.587-.885-.456-1.922-.961-2.946-.746-.835.164-1.442.784-1.543 1.618-.051.481.708.468.771-.012Z"/>
  <path fill="#191D23" d="M116.551 96.483a11.531 11.531 0 0 1 1.872 6.703c-.013.493.746.493.759 0a12.092 12.092 0 0 0-1.973-7.082c-.266-.418-.923-.038-.658.379Zm-7.058-9.764a5.762 5.762 0 0 1 3.415 1.67c.342.34.885-.19.531-.532-1.075-1.088-2.441-1.72-3.946-1.897-.48-.05-.48.708 0 .759Z"/>
  <path fill="#191D23" fill-rule="evenodd" d="M27.802 20.142v-.151s0-.051-.025-.165c0-.101 0-.253-.012-.442a7.465 7.465 0 0 0-.266-1.67c-.19-.696-.48-1.556-1.037-2.416a8.63 8.63 0 0 0-2.378-2.491 8.887 8.887 0 0 0-1.758-.924 8.446 8.446 0 0 0-2.074-.505 8.592 8.592 0 0 0-4.515.683 8.648 8.648 0 0 0-3.719 3.136 9.43 9.43 0 0 0-.607 1.1c-.177.393-.316.785-.442 1.19-.114.404-.19.822-.253 1.239-.05.417-.064.847-.064 1.265.026 1.694.582 3.338 1.506 4.704a9.067 9.067 0 0 0 3.655 3.1c.366.163.733.303 1.1.416a8.49 8.49 0 0 0 1.126.266c.063.008.126.018.19.028.126.02.252.04.379.048.088.013.19.025.278.025.052 0 .101.004.148.007.045.003.087.006.13.006.126.008.247.005.369.003a5.8 5.8 0 0 1 .188-.003l.183-.01c.12-.006.243-.011.36-.028.059-.008.116-.014.172-.02.127-.016.25-.03.372-.056.089-.025.177-.038.266-.05.044-.013.088-.023.133-.032a7.512 7.512 0 0 0 .639-.17c.164-.052.328-.102.493-.165a8.227 8.227 0 0 0 1.758-.911 8.419 8.419 0 0 0 2.377-2.479 8.992 8.992 0 0 0 1.038-2.416c.19-.708.253-1.277.278-1.669.012-.19.012-.341.012-.443Zm-.05-.303v.152s-.013.05 0 .139a1.576 1.576 0 0 0-.007.15c-.002.083-.004.181-.018.292-.026.38-.089.949-.304 1.645-.101.354-.24.72-.43 1.113-.19.392-.417.796-.708 1.201a8.702 8.702 0 0 1-2.416 2.264 9.181 9.181 0 0 1-1.695.835 8.881 8.881 0 0 1-1.96.468 6.526 6.526 0 0 1-.518.05c-.09 0-.178.003-.266.006a5.903 5.903 0 0 1-.266.007h-.278a1.5 1.5 0 0 1-.133-.007 1.943 1.943 0 0 0-.133-.006 8.601 8.601 0 0 1-.271-.025 8.908 8.908 0 0 0-.272-.025 6.818 6.818 0 0 1-1.088-.203 8.217 8.217 0 0 1-3.086-1.53 7.948 7.948 0 0 1-1.619-1.758 7.824 7.824 0 0 1-.607-1.05 8.795 8.795 0 0 1-.43-1.138 9.653 9.653 0 0 1-.253-1.202 9.964 9.964 0 0 1-.063-1.226c.012-.418.05-.81.114-1.215a7.26 7.26 0 0 1 .29-1.176c.127-.38.279-.759.456-1.113s.38-.695.607-1.024a8.317 8.317 0 0 1 3.566-2.896c.045-.02.089-.035.133-.051.044-.016.089-.032.133-.05a2.23 2.23 0 0 1 .266-.102c.088-.025.177-.054.265-.082.089-.028.177-.057.266-.082.354-.101.72-.177 1.075-.228a7.62 7.62 0 0 1 .531-.063c.044 0 .089-.003.133-.007.044-.003.088-.006.133-.006.088-.012.177-.012.265-.012h.531l.171.01c.116.005.229.01.348.027a8.855 8.855 0 0 1 1.96.443 10.02 10.02 0 0 1 1.695.822 8.326 8.326 0 0 1 2.416 2.252 8.1 8.1 0 0 1 .708 1.201c.19.392.329.771.43 1.113.215.696.278 1.265.304 1.644.025.19.025.342.025.443Zm93.402 77.162c.012-.316.025-.493.025-.493s0-.164-.038-.506c0-.076 0-.164-.013-.265l-.019-.114c-.011-.064-.024-.133-.031-.203-.013-.063-.022-.126-.032-.19a3.142 3.142 0 0 0-.032-.189c-.023-.077-.041-.16-.061-.247a7.01 7.01 0 0 0-.887-2.182 7.195 7.195 0 0 0-.2-.287 10.11 10.11 0 0 1-.18-.256c-.063-.089-.139-.177-.215-.266l-.227-.265a.847.847 0 0 1-.037-.04.62.62 0 0 0-.09-.087l-.037-.04a.627.627 0 0 0-.089-.086l-.266-.266a7.683 7.683 0 0 0-.607-.48 7.3 7.3 0 0 0-1.467-.772l-.088-.036a2.852 2.852 0 0 0-.317-.116 16.086 16.086 0 0 0-.215-.057l-.215-.057a.88.88 0 0 1-.107-.025 1.108 1.108 0 0 0-.108-.025l-.227-.038-.456-.076c-.076-.025-.151-.025-.227-.025a1.36 1.36 0 0 1-.114-.007 1.36 1.36 0 0 0-.114-.006 1.36 1.36 0 0 1-.114-.006c-.038-.003-.076-.007-.114-.007l-.113-.012h-.127l-.158.005c-.263.01-.527.018-.79.07-.633.076-1.265.279-1.885.544-.152.064-.303.14-.455.216a1.05 1.05 0 0 0-.108.063c-.035.022-.069.044-.107.063l-.215.127-.215.139-.101.075a3.15 3.15 0 0 0-.102.076 2.327 2.327 0 0 1-.202.158c-.07.051-.139.102-.202.159a7.653 7.653 0 0 0-1.379 1.543 7.708 7.708 0 0 0-.873 1.91l-.126.518-.025.126-.013.127-.038.265-.038.266c-.013.088-.013.164-.013.253l-.012.519c.025.708.139 1.403.354 2.061.039.128.087.249.135.374l.042.107c.019.038.035.079.051.12.015.04.031.082.05.12l.114.228.114.227a.533.533 0 0 1 .031.057.46.46 0 0 0 .032.057l.063.114c.089.152.177.303.266.443a8.545 8.545 0 0 0 1.353 1.505c.063.05.13.101.196.151l.196.152.101.076.102.076.215.139.215.139c.076.051.139.089.215.127l.221.113c.073.038.145.076.221.114.607.266 1.214.481 1.859.569.237.057.466.072.694.086.077.004.153.009.23.016h.227c.076-.013.152-.013.228-.013.061-.005.121-.006.182-.007.091-.002.182-.003.273-.018a6.856 6.856 0 0 0 3.188-1.164l.183-.138c.152-.114.301-.225.436-.343l.266-.265.126-.127a.584.584 0 0 0 .127-.126l.227-.266.055-.062a1.46 1.46 0 0 0 .16-.203c.14-.19.266-.367.38-.544.468-.721.696-1.43.86-2.011l.029-.114c.027-.108.053-.21.072-.303.022-.08.031-.156.04-.228a1.73 1.73 0 0 1 .023-.152c.026-.114.038-.215.051-.316.013-.101.013-.19.013-.266Zm-.051-.986c.013.316.025.493.025.493s0 .177-.063.493c-.007.041-.01.085-.013.133-.003.042-.006.086-.012.133-.006.046-.015.093-.023.14-.01.056-.021.114-.028.176l-.002.018c-.012.11-.025.229-.061.349-.038.126-.076.266-.114.405-.014.035-.024.074-.035.115a1.38 1.38 0 0 1-.028.1c-.013.038-.029.076-.044.113-.016.038-.032.076-.045.114l-.039.096a1.54 1.54 0 0 1-.062.145c-.014.028-.026.057-.039.088a.838.838 0 0 1-.075.152 8.72 8.72 0 0 0-.265.493l-.102.152c-.073.108-.15.222-.227.341a7.171 7.171 0 0 1-2.011 1.86 7.686 7.686 0 0 1-3.023 1.062c-.092.017-.189.022-.285.028l-.145.01c-.03 0-.063.003-.098.006-.038.003-.077.007-.117.007l-.114.012h-.088a22.482 22.482 0 0 0-.263-.007 4.175 4.175 0 0 1-.648-.043 3.844 3.844 0 0 0-.23-.034c-.07-.009-.141-.018-.213-.03-.075-.019-.151-.034-.227-.05a6.215 6.215 0 0 1-.228-.051 2.495 2.495 0 0 1-.442-.126l-.228-.076-.055-.021a1.591 1.591 0 0 1-.16-.068c-.139-.063-.278-.126-.43-.189a3.55 3.55 0 0 1-.108-.057 2.604 2.604 0 0 0-.107-.057l-.215-.114-.215-.114a1.156 1.156 0 0 1-.203-.139 3.543 3.543 0 0 0-.196-.145c-.066-.048-.132-.095-.196-.146a4.024 4.024 0 0 0-.235-.213l-.131-.116-.089-.076a.311.311 0 0 1-.064-.061.327.327 0 0 0-.024-.027l-.165-.177-.164-.177a1.104 1.104 0 0 1-.101-.124l-.051-.066a8.857 8.857 0 0 0-.152-.202c-.05-.067-.101-.133-.152-.203a6.897 6.897 0 0 1-.86-1.821 7.598 7.598 0 0 1-.253-1.998l.038-.506c.006-.043.01-.086.013-.127a1.19 1.19 0 0 1 .013-.126l.05-.24.038-.24.025-.127.038-.127.14-.48a7.472 7.472 0 0 1 .885-1.77 7.377 7.377 0 0 1 1.315-1.418l.196-.139.196-.139c.064-.05.127-.1.19-.139l.202-.114.203-.113.052-.034c.047-.03.095-.062.15-.08.152-.076.291-.14.43-.203.063-.038.139-.063.215-.088l.215-.076a4.39 4.39 0 0 0 .129-.046c.104-.038.206-.075.314-.093l.221-.057c.073-.02.146-.038.221-.057.104-.026.202-.04.302-.055l.141-.02a3.61 3.61 0 0 1 .593-.06c.098-.004.195-.008.292-.017h.215c.076.013.152.013.228.013.076.013.152.013.228.013.076 0 .152 0 .215.012.069.013.139.022.208.032.07.01.14.019.209.031.063 0 .139.013.202.026.032.006.067.016.102.025.034.01.069.019.101.025.062.017.124.032.186.046.075.017.149.035.219.055.063.02.126.041.189.064a7.144 7.144 0 0 1 1.594.72 7.005 7.005 0 0 1 2.011 1.86c.114.164.227.329.329.493.067.11.123.22.18.329l.085.164a.834.834 0 0 1 .075.153c.013.03.025.06.039.088l.035.079c.025.056.049.108.066.16.013.039.029.077.045.115.015.038.031.076.044.114.014.035.024.074.035.115a17.117 17.117 0 0 0 .142.504c.012.059.021.118.029.175.011.067.021.131.034.192.007.062.017.12.028.176.008.047.017.094.023.14.015.06.016.116.018.167a.761.761 0 0 0 .007.099Zm11.496-62.782c.013-.178.013-.279.013-.279s-.013-.101 0-.265c-.007-.02-.007-.045-.007-.072 0-.026 0-.055-.006-.08a1.027 1.027 0 0 1-.012-.095c-.004-.032-.007-.063-.013-.095 0-.063-.013-.139-.025-.215a1.386 1.386 0 0 0-.023-.103c-.01-.043-.021-.088-.028-.137a4.456 4.456 0 0 0-.468-1.176 4.193 4.193 0 0 0-1.113-1.24 3.65 3.65 0 0 0-.967-.512c-.042-.016-.083-.032-.121-.044a1.423 1.423 0 0 1-.253-.064l-.126-.038a.626.626 0 0 0-.07-.012.628.628 0 0 1-.069-.013 9.527 9.527 0 0 1-.278-.038 1.504 1.504 0 0 0-.127-.012c-.041-.004-.082-.007-.126-.013l-.127-.013h-.152a7.16 7.16 0 0 1-.14.009c-.135.007-.276.014-.416.042-.38.038-.759.164-1.113.316s-.683.38-.999.633a4.568 4.568 0 0 0-.797.91 4.026 4.026 0 0 0-.506 1.113l-.01.04c-.047.188-.092.367-.104.567-.03.171-.028.318-.026.48l.001.127c.025.405.101.81.228 1.19.019.043.038.09.057.138a3.71 3.71 0 0 0 .183.405c.061.154.148.29.232.425l.059.093c.227.33.493.62.784.873.303.24.62.468.961.633a4.132 4.132 0 0 0 1.606.417h.279c.088 0 .177 0 .265-.013a3.885 3.885 0 0 0 1.859-.695c.506-.355.86-.81 1.113-1.227.253-.417.38-.835.468-1.164.007-.049.018-.094.029-.137.008-.035.016-.07.022-.103.006-.036.009-.073.012-.108a1.08 1.08 0 0 1 .013-.107c.006-.034.009-.066.012-.095a.605.605 0 0 1 .014-.095c.012-.05.012-.1.012-.151Zm-.05-.557c.012.177.012.279.012.279s-.012.1.013.316c0 .05 0 .1-.013.151a.96.96 0 0 1-.025.178 1.403 1.403 0 0 0-.01.066c-.006.042-.011.087-.028.136a2.026 2.026 0 0 1-.063.228l-.019.063-.019.063c-.006.019-.016.041-.025.063a.998.998 0 0 0-.026.063c-.025.045-.044.09-.063.133a1.319 1.319 0 0 1-.063.133 5.547 5.547 0 0 0-.152.278 3.886 3.886 0 0 1-.072.097c-.044.058-.09.117-.13.182-.278.366-.67.72-1.151 1.011a4.654 4.654 0 0 1-1.682.582c-.038.007-.079.01-.12.013a1.348 1.348 0 0 0-.12.013l-.127.012h-.126a3.828 3.828 0 0 0-.215-.007 2.104 2.104 0 0 1-.304-.018 4.17 4.17 0 0 1-1.012-.228 3.703 3.703 0 0 1-.948-.531l-.215-.177a1.543 1.543 0 0 1-.14-.137 2.18 2.18 0 0 0-.063-.065 6.359 6.359 0 0 1-.354-.443 3.846 3.846 0 0 1-.48-1.037c-.102-.367-.127-.746-.127-1.126a2.78 2.78 0 0 0 .02-.194 2.04 2.04 0 0 1 .056-.375 2.64 2.64 0 0 1 .1-.398l.039-.133c.127-.342.304-.67.506-.974.228-.29.468-.556.746-.784a3.838 3.838 0 0 1 2.201-.825 6.44 6.44 0 0 0 .164-.01h.241c.088 0 .177 0 .253.013.075 0 .151.012.227.025.038 0 .076 0 .114.013l.114.025c.038.006.076.016.114.025.038.01.076.02.114.026.06.01.112.028.169.047l.046.016a4.038 4.038 0 0 1 1.935 1.366c.075.101.139.19.202.278.051.101.101.19.152.278a2.648 2.648 0 0 1 .151.33c.01.021.019.043.026.062l.019.064a.784.784 0 0 0 .019.063c.012.076.038.152.063.227.013.076.025.152.038.215 0 .064.013.127.025.178.013.05.013.1.013.151Zm7.639-20.274c.012-.303.025-.468.025-.468l-.038-.506c0-.076 0-.164-.012-.253a1.853 1.853 0 0 1-.051-.303l-.007-.061c-.011-.089-.023-.191-.044-.293a3.238 3.238 0 0 1-.055-.22 4.66 4.66 0 0 0-.046-.185c-.164-.556-.379-1.24-.822-1.935-.101-.164-.228-.342-.354-.519a1.208 1.208 0 0 0-.149-.192 1.484 1.484 0 0 1-.053-.06l-.228-.266c-.1-.117-.212-.223-.327-.333a9.47 9.47 0 0 1-.179-.173c-.19-.164-.392-.316-.594-.468a6.207 6.207 0 0 0-1.404-.746c-.058-.017-.115-.04-.174-.063-.071-.027-.143-.056-.218-.076l-.418-.114a1.171 1.171 0 0 1-.084-.022c-.037-.01-.075-.022-.118-.029a7.018 7.018 0 0 0-.215-.038 4.526 4.526 0 0 1-.386-.053l-.057-.01c-.076-.025-.139-.025-.215-.025a.916.916 0 0 1-.107-.007 1.168 1.168 0 0 0-.108-.006c-.038 0-.072-.003-.107-.006s-.07-.006-.108-.006h-.227l-.152.005a4.437 4.437 0 0 0-.759.07c-.607.076-1.214.266-1.809.519-.091.05-.183.095-.279.141l-.151.074a.95.95 0 0 0-.183.094l-.032.02-.202.126-.202.127a1.156 1.156 0 0 0-.203.139l-.196.152c-.066.05-.133.1-.196.151a7.44 7.44 0 0 0-1.328 1.48 7.102 7.102 0 0 0-.847 1.834l-.114.493-.025.127-.013.126-.038.253-.038.253c-.012.089-.012.165-.012.253l-.013.493.038.506c0 .124.021.247.043.37l.02.123.038.253.025.127.038.126.139.481c.051.164.114.316.177.468.026.076.051.152.089.228l.114.227.114.228.05.114.063.1.266.418a7.93 7.93 0 0 0 1.303 1.455c.063.05.126.098.189.145.064.048.127.095.19.146.063.038.127.088.19.139l.202.126.203.127c.063.05.126.088.202.126.07.038.139.073.209.108.069.035.139.07.208.107.582.266 1.164.468 1.784.557.227.056.447.07.665.085l.22.016h.228c.076-.013.151-.013.227-.013.061-.005.121-.006.181-.007.09-.001.178-.003.262-.018a6.648 6.648 0 0 0 3.061-1.126 5.47 5.47 0 0 0 .471-.355l.123-.1c.037-.034.073-.068.11-.1.139-.128.276-.253.396-.393l.228-.266a2.19 2.19 0 0 0 .215-.253c.048-.075.1-.147.153-.22.071-.098.142-.196.201-.298.442-.696.67-1.379.822-1.935.038-.14.076-.279.101-.405.012-.062.019-.12.025-.177a1.48 1.48 0 0 1 .026-.177c.02-.082.032-.172.043-.25l.007-.054c.013-.088.013-.177.013-.253Zm-.05-.935c.012.303.025.467.025.467s-.013.165 0 .456a1.19 1.19 0 0 0-.013.126c-.003.041-.006.084-.012.127-.005.036-.013.073-.02.114a2.7 2.7 0 0 0-.031.19c-.013.113-.025.227-.063.353-.038.127-.076.253-.114.392-.013.038-.022.073-.032.108a2.06 2.06 0 0 1-.031.107l-.031.073c-.02.045-.042.094-.058.143-.012.037-.028.075-.044.113a1.33 1.33 0 0 0-.044.114c-.026.076-.064.152-.101.228-.045.082-.086.161-.127.24l-.126.24-.12.184c-.063.097-.127.197-.197.297a6.567 6.567 0 0 1-1.922 1.783 7.32 7.32 0 0 1-2.896 1.025c-.093.017-.186.022-.279.028-.046.003-.092.005-.139.01-.038 0-.072.003-.107.006s-.07.006-.108.006l-.101.013h-.088c-.084-.004-.168-.005-.252-.007a3.913 3.913 0 0 1-.621-.044 4.37 4.37 0 0 0-.215-.031 4.092 4.092 0 0 1-.215-.032 4.39 4.39 0 0 0-.215-.05 4.034 4.034 0 0 1-.215-.051 2.347 2.347 0 0 1-.43-.127l-.215-.075a.622.622 0 0 1-.215-.076l-.418-.19a1.02 1.02 0 0 1-.202-.101l-.202-.114-.203-.114a1.665 1.665 0 0 1-.094-.063c-.032-.022-.064-.044-.095-.063a4.041 4.041 0 0 0-.19-.14 3.652 3.652 0 0 1-.19-.139 4.228 4.228 0 0 0-.243-.22 7.137 7.137 0 0 1-.111-.096l-.088-.076a.41.41 0 0 1-.038-.044.9.9 0 0 0-.038-.044l-.165-.177a5.999 5.999 0 0 0-.081-.09 2.633 2.633 0 0 1-.235-.277c-.101-.127-.202-.253-.291-.38a6.702 6.702 0 0 1-.822-1.745 7.547 7.547 0 0 1-.24-1.91c.038-.67.139-1.29.341-1.897a7.334 7.334 0 0 1 .848-1.694 7.13 7.13 0 0 1 1.264-1.354 9.722 9.722 0 0 1 .462-.329c.032-.022.063-.044.095-.063l.202-.114.19-.113a.996.996 0 0 1 .202-.102c.07-.031.136-.063.203-.094.066-.032.133-.064.202-.095.557-.215 1.113-.405 1.682-.468.174-.032.352-.039.53-.046.106-.004.213-.008.318-.018h.202c.076.013.139.013.215.013.076.013.139.013.215.013.063 0 .139 0 .202.012.064.007.13.016.196.026.067.01.133.019.196.025.064 0 .127.013.19.025.032.007.063.016.095.026.032.01.063.019.095.025.063.013.126.028.19.044.063.016.126.032.189.044.063.02.124.042.184.064s.12.044.183.063c.481.152.923.392 1.341.632a6.878 6.878 0 0 1 1.922 1.77c.076.125.16.249.24.367l.076.115c.089.151.177.316.253.467.038.076.076.152.101.228.013.038.029.076.045.114.015.038.031.076.044.114.038.076.063.139.088.215.012.033.02.067.029.1.01.04.021.08.035.115.038.139.076.265.114.392l.029.166c.01.064.02.126.034.188.007.068.019.13.03.19.008.04.015.078.02.114.015.052.017.105.019.155a.75.75 0 0 0 .007.098Z" clip-rule="evenodd"/>
  <path fill="#191D23" d="M45.092 35.307c-.114-.076-.089-.266-.038-.367.088-.177.366-.227.543-.227.355-.013.709.151 1.038.24.455.139.936.215 1.404.063.834-.29 1.15-1.163 1.454-1.922.177-.443.57-1.227 1.15-1.202.481.025.785.607 1.316.62.91.038 1.518-.923 1.834-1.644.19-.443-.455-.835-.658-.38-.265.607-.784 1.606-1.53 1.063-.405-.291-.771-.544-1.303-.392-1.125.303-1.378 1.517-1.834 2.415-.392.76-.935.848-1.732.62-.557-.164-1.151-.354-1.733-.14-.784.304-1.062 1.43-.29 1.91.416.254.796-.391.379-.657Zm5.78-.051c-.076-.468.316-.961.784-1.024.417-.063.734.29 1.126.367.72.126 1.277-.468 1.555-1.05.177-.367.278-.822.595-1.1.278-.253.683-.304 1.037-.367.657-.114 1.29-.203 1.758-.734.316-.367-.215-.898-.531-.531-.544.62-1.53.443-2.252.746-.91.392-.923 1.24-1.467 1.948-.468.607-.948.038-1.505-.026a1.69 1.69 0 0 0-.961.19 1.673 1.673 0 0 0-.86 1.784c.076.48.81.278.72-.203Zm1.644 37.298c-.494-.67 0-1.72.898-1.455.872.253.809 1.455-.038 1.708-.468.139-.266.872.202.733 1.492-.455 1.67-2.593.14-3.136-1.506-.544-2.809 1.252-1.86 2.53.278.391.949.012.658-.38Zm73.772-16.758c-.063-.228.101-.291.481-.177.177.063.341.126.506.202.177.076.354.14.544.177.354.063.708-.012.999-.24.619-.493.531-1.316.91-1.923.405-.657.696-.19 1 .19.164.215.354.392.632.455.291.064.582-.037.809-.227a1.86 1.86 0 0 0 .38-.456c.012-.025.569-.834.582-.62.025.481.784.494.758 0-.012-.455-.354-.77-.809-.783-.531-.013-.822.404-1.062.809-.228.367-.481.683-.797.228-.127-.177-.228-.354-.405-.494-.392-.316-.885-.29-1.277 0-.443.317-.633.835-.772 1.328-.076.291-.152.67-.379.886-.354.316-.86-.038-1.214-.177-.494-.19-1.113-.24-1.468.24-.265.367-.265.822.051 1.138.342.33.873-.215.531-.556Zm6.122.771c-.139-.543.607-.632.948-.569.291.05.557.165.848.24.455.127.961.203 1.416.038.354-.126.607-.379.797-.695.228-.38.304-.91.696-1.164.404-.265.025-.923-.38-.657-.468.303-.632.746-.86 1.227-.443.898-1.214.581-1.986.366-.581-.164-1.201-.227-1.72.14-.43.303-.619.783-.48 1.29.114.455.847.252.721-.216ZM26.88 70.796c-2.896 3.857-4.288 5.438-5.477 7.082-.948 1.303-2.263 3.34-3.478 6.147-.392.48-.999 1.05-1.732 1.075-1.72.038-2.15-2.909-4.68-4.54-1.948-1.265-4.717-1.468-6.817-.532C.7 81.786-.084 87.187.282 87.376c.354.19 1.998-4.287 5.476-4.818 1.202-.177 2.24.164 2.543.265 1.796.645 2.276 1.936 3.882 3.34.822.72 2.125 1.63 4.149 2.276a5.01 5.01 0 0 0-.405 1.872c-.013 2.53 2.1 4.16 2.428 4.401.165.38.418 1.05.405 1.935a4.667 4.667 0 0 1-.645 2.29 15.36 15.36 0 0 0 1.758 2.111c1.1 1.075 1.53 1.151 1.695 1.177 1.037.101 1.872-.898 2.049-1.113-.279-.127-1.657-.822-2.226-2.467-.557-1.606.076-2.997.24-3.338.177-.38.38-.683.531-.886.683.392 1.53 1.025 1.935 2.05.557 1.403-.202 2.339.468 3.224.709.923 2.29.923 3.263.645 1.05-.291 2.138-1.1 2.011-1.606-.139-.57-1.732-.14-2.542-1.075-.72-.822-.38-2.2-.139-3.213.784-3.187 2.618-3.97 2.669-6.285.025-1.063-.342-1.948-.67-2.543 2.238-4.603 4.73-6.627 6.69-7.626 1.163-.594 3.086-1.088 5.362-2.82 1.037-.784 1.809-1.493 2.694-2.34 1.075-1.024 3.415-3.263 3.112-3.693-.253-.342-2.1.607-2.644.885-2.605 1.34-2.921 2.365-4.641 2.757-1.341.304-3.137.127-3.478-.67-.405-.949 1.694-1.86 1.732-3.883.013-.316-.038-.695-1.732-3.604-1.543-2.631-1.999-3.162-2.277-3.074-.43.14.089 1.746-.797 2.543-.48.43-1.15.442-1.606.404-1.935-2.01-2.656-2.314-2.947-2.137-.531.341.746 2.314.266 4.819-.24 1.201-.76 1.947-2.011 3.617Z"/>
  <path fill="#fff" d="M33.014 67.356c.012.012.012.025.012.038 0-.026 0-.013 0 0 .013-.038-.012.012 0 0l-.012.012c-.013.013.012 0 0 0h-.038s-.038-.012-.013 0a.33.33 0 0 0-.013-.012c.013.012 0 .012 0 0v-.038c0-.013.013-.025 0-.013.013-.013.013-.025.026-.025-.026.013 0 0 .012 0-.05 0 .026 0 0 0-.025 0 .038.013.013 0s.038.025 0 0a.213.213 0 0 0-.265.063c-.051.089-.013.202.063.266a.327.327 0 0 0 .417-.05.333.333 0 0 0 .013-.456.332.332 0 0 0-.43-.064c-.152.102-.19.291-.114.456.05.088.177.114.265.063.089-.038.102-.152.064-.24Zm2.656-1.05c-.025-.038.013.025 0 .05 0 .013-.012.026-.012.038-.038.038-.114.051-.152 0-.05-.063 0-.139.05-.151-.025.012 0 0 .013 0 .025 0 .05.012.063.025-.075-.076-.202-.076-.265 0a.183.183 0 0 0 0 .266c.088.1.253.113.367.037a.288.288 0 0 0 .075-.404.271.271 0 0 0-.392-.064.311.311 0 0 0-.075.393c.063.088.164.126.265.063.076-.05.127-.177.063-.253Zm-.721 1.354c.101.24.253 1.074-.202 1.087-.127 0-.127.19 0 .19.645-.013.53-1 .366-1.366-.05-.127-.215-.025-.164.088Z"/>
  <path fill="#fff" d="M35.011 67.722c.102.279.291.595.582.709.24.088.519-.038.531-.304.013-.126-.177-.126-.19 0-.012.304-.391.076-.493-.025a1.138 1.138 0 0 1-.253-.43c-.038-.114-.215-.063-.177.05Zm-2.427.102c.227-.05.442-.038.645.05.113.05.164-.139.05-.177a1.162 1.162 0 0 0-.746-.05c-.114.025-.063.202.05.177Zm3.376-1.834a1.675 1.675 0 0 0-.227.695c-.012.127.177.127.19 0 .025-.215.088-.417.202-.607.064-.1-.1-.19-.164-.088Z"/>
  <path fill="#191D23" d="M33.216 74.628c.405-1.783 2.1-2.125 5.084-4.528 2.011-1.619 3.099-2.972 3.478-2.706.291.202-.05 1.24-.177 1.58-.329.95-.847 1.569-1.05 1.822-.86.999-2.44 2.706-5.54 4.768-.606.405-1.239.797-1.605.57-.443-.292-.215-1.392-.19-1.506Z"/>
  <path fill="#fff" stroke="#191D23" stroke-width=".5" d="M27.07 71.137c-1.62-1.454-2.024-3.326-2.1-3.706-.62-3.149 1.265-5.577 1.657-6.058 2.1-2.58 6.235-4.085 9.498-2.377 2.568 1.353 3.326 4.06 3.516 4.831.57 2.416.025 5.35-2.023 7.298-3.01 2.87-7.943 2.365-10.549.012Z" opacity=".73"/>
  <path fill="#fff" stroke="#191D23" stroke-width=".5" d="M74.561 51.255a34.216 34.216 0 0 0-6.02 6.729c-1.518 2.238-4.098 6.134-4.996 11.737-1.303 8.094 1.746 14.494 2.757 16.429 3.68 7.044 9.41 10.333 11.535 11.433a22.83 22.83 0 0 0-1.733 3.466c-.139.366-2.883 7.386-1.024 8.676 1.404.961 4.78-1.72 5.299-2.138 3.086-2.466 4.528-5.78 6.121-9.587a50.188 50.188 0 0 0 1.43-3.882c-1.758-1.227-4.364-3.34-6.628-6.628-1.416-2.048-6.248-9.055-4.186-15.505.948-2.96 2.276-2.505 5.919-8.474 2.669-4.389 4.174-6.843 3.364-8.879-1.087-2.757-6.02-3.92-11.838-3.377Z"/>
  <path fill="#191D23" d="M69.324 58.465a6.02 6.02 0 0 0 5.237-3.188c.088-.164-.165-.303-.24-.139a5.729 5.729 0 0 1-4.984 3.048c-.202 0-.202.279-.013.279Zm5.528 37.183a16.472 16.472 0 0 0 7.044-6.197c.102-.152-.151-.304-.24-.14a16.208 16.208 0 0 1-6.943 6.097c-.165.076-.026.316.139.24Z"/>
  <path fill="#191D23" d="M78.86 93.233c.254.974 1.24.063 1.594-.279.898-.834 1.86-1.644 2.353-2.807.076-.165-.177-.317-.24-.14-.304.709-.772 1.278-1.316 1.81l-.72.682c-.115.114-1.215 1.265-1.38.645-.063-.164-.34-.088-.29.089Zm-4.476-23.575a13.788 13.788 0 0 0-1.517 8.018c.025.177.303.177.29 0-.316-2.719.19-5.45 1.468-7.866.088-.165-.165-.317-.24-.152Z"/>
  <path fill="#191D23" d="M73.132 79.27c-.177-.304-.341-.645-.278-1.012.05-.316.341-.595.683-.557.746.102.38 1.872-.468 1.442-.164-.076-.304.165-.14.24.469.24.987-.012 1.19-.48.177-.418.164-1.113-.253-1.379-.354-.24-.848-.063-1.1.24-.393.481-.152 1.164.126 1.645.088.164.329.025.24-.14Zm.886 1.265a36.623 36.623 0 0 0 6.627 9.75c.126.14.329-.063.202-.202a36.736 36.736 0 0 1-6.589-9.7c-.076-.152-.316-.013-.24.152Zm-9.663.227c.493-.746 1.442-1.025 2.29-.759.86.266 1.504 1.012 1.846 1.821.392.911.48 1.96.215 2.922-.278.986-1.138 1.948-2.239 1.492-.164-.076-.24.203-.076.279.987.404 1.935-.215 2.378-1.1.557-1.126.493-2.568-.013-3.707-.417-.948-1.226-1.82-2.276-2.023-.91-.177-1.86.177-2.365.948-.114.14.139.291.24.127Z"/>
  <path fill="#191D23" d="M64.911 82.255c.14-.785 1.126-.797 1.695-.519.442.215.81.607 1.024 1.05.24.493.316 1.087.127 1.619-.279.771-1 .923-1.746.885-.177-.013-.177.278 0 .29.81.051 1.594-.126 1.948-.922.304-.683.19-1.518-.177-2.15-.354-.62-.986-1.126-1.72-1.202-.62-.063-1.315.215-1.43.885-.025.165.254.24.279.064Zm4.528 8.473c1.809-.872 3.39-2.1 4.692-3.617.114-.14-.076-.342-.202-.202a14.429 14.429 0 0 1-4.642 3.579c-.152.076-.012.329.152.24Z"/>
  <path fill="#191D23" d="M71.64 89.375c.214.266.492.822.847.936.278.088.505-.127.708-.278.67-.468 1.29-.974 1.72-1.683.101-.151-.152-.303-.24-.139-.342.557-.797.974-1.303 1.354-.215.164-.443.392-.721.367-.329-.026-.582-.506-.797-.76-.126-.138-.329.064-.215.203Zm7.26-.923a10.252 10.252 0 0 1-3.554 3.87c-.089.05-.101.19 0 .24a4.963 4.963 0 0 1 1.492 1.214c.114.14.316-.063.203-.202a5.144 5.144 0 0 0-1.556-1.252v.24a10.446 10.446 0 0 0 3.668-3.971c.088-.152-.165-.304-.253-.14ZM64.848 65.231a11.736 11.736 0 0 1 3.82.114c1.188.24 2.478.594 3.262 1.593.114.14.316-.063.203-.202-.76-.974-1.999-1.353-3.162-1.606a11.89 11.89 0 0 0-4.123-.177c-.177.025-.177.303 0 .278Zm-1.025 3.453c2.163.063 4.237.645 6.122 1.707.164.089.303-.152.139-.24a13.63 13.63 0 0 0-6.26-1.758c-.178 0-.178.29 0 .29Z"/>
  <path fill="#191D23" d="M71.867 66.9a24.202 24.202 0 0 0-1.796 3.213c-.076.164.165.303.24.139a24.22 24.22 0 0 1 1.796-3.212c.114-.152-.139-.291-.24-.14Zm-7.449-.468c1.34-.1 2.656.051 3.933.456.177.05.253-.215.076-.279a11.014 11.014 0 0 0-4.009-.468c-.177.026-.177.304 0 .291Z"/>
  <path fill="#191D23" d="M68.883 65.534c-.228.316-.367.67-.443 1.05-.025.177.24.253.279.076.063-.367.202-.683.404-.987.114-.151-.139-.29-.24-.139Z"/>
  <path fill="#191D23" d="M68.806 66.319a6.9 6.9 0 0 1 2.555 1.429c.139.114.341-.076.202-.203a7.493 7.493 0 0 0-2.681-1.505c-.177-.05-.253.228-.076.279Zm-3.2 2.883a11.419 11.419 0 0 0-1.188 4.553c-.013.178.278.178.29 0a11.203 11.203 0 0 1 1.151-4.413c.076-.165-.164-.304-.253-.14Z"/>
  <path fill="#191D23" d="M64.355 75.16c-.102-.266-.228-.582-.14-.873.076-.253.392-.494.62-.253.202.202.291.594.14.847-.127.215-.405.291-.608.14-.152-.102-.29.138-.139.24.303.215.734.113.949-.177.265-.355.164-.873-.089-1.202-.253-.316-.658-.316-.936-.038-.392.38-.24.936-.076 1.391.063.165.342.089.279-.076Zm12.002-18.87a62.5 62.5 0 0 1-4.073 5.058c-.126.14.076.342.203.203a63.74 63.74 0 0 0 4.11-5.11c.114-.164-.126-.303-.24-.152Z"/>
  <path fill="#191D23" d="M72.31 61.614a3.136 3.136 0 0 0 1.96.898c.177.012.177-.266 0-.291a2.892 2.892 0 0 1-1.758-.822c-.126-.114-.329.088-.202.215Zm.923-1.164c.481.468 1.05.81 1.695 1.025.177.063.253-.215.076-.279a4.246 4.246 0 0 1-1.568-.948c-.14-.127-.342.076-.203.202Z"/>
  <path fill="#191D23" d="M74.751 61.285a2.497 2.497 0 0 1-.746.986c-.14.114.063.316.202.203.342-.278.62-.633.797-1.037.063-.165-.19-.317-.253-.152Zm-.001-2.605c.456.48 1.038.784 1.696.885.177.025.252-.253.075-.278a2.697 2.697 0 0 1-1.568-.81c-.139-.139-.341.063-.202.203Zm.696-.962c.392.392.873.67 1.417.797.177.038.253-.228.076-.278a2.575 2.575 0 0 1-1.29-.721c-.127-.127-.33.076-.203.202Z"/>
  <path fill="#191D23" d="M76.762 58.389c.013.354-.126.67-.405.91-.139.114.064.316.203.203.329-.279.506-.683.48-1.113 0-.19-.278-.19-.278 0Zm-3.63 11.648a15.615 15.615 0 0 0-1.569 6.35c0 .176.279.176.291 0a15.138 15.138 0 0 1 1.53-6.21c.077-.165-.164-.304-.252-.14Zm2.011-3.984c1.252.936 2.277 2.1 3.06 3.453.09.164.342.013.241-.14a11.69 11.69 0 0 0-3.174-3.553c-.127-.114-.266.126-.127.24Zm1.619.038a10.3 10.3 0 0 1 2.302 2.555c.1.152.341.013.24-.14a10.51 10.51 0 0 0-2.34-2.617c-.139-.114-.341.088-.202.202Zm9.802 27.192c-1.492 1.569-.986 3.82-1.518 5.742-.329 1.202-.948 2.327-1.467 3.453a390.34 390.34 0 0 1-1.53 3.326c-.076.165.164.317.24.139.936-2.048 2.011-4.072 2.795-6.184.746-2.011.089-4.63 1.657-6.273.152-.127-.05-.33-.177-.203Zm-8.778 4.465a9.09 9.09 0 0 1 2.922-1.202c.177-.038.101-.316-.076-.278a9.153 9.153 0 0 0-2.997 1.227c-.14.1 0 .354.151.253Zm6.704-5.894a7.605 7.605 0 0 1-1.759 2.39c-.088.076-.038.203.064.24.379.127.973.52 1.34.203.291-.253.531-.645.772-.949.29-.354.582-.72.885-1.075.114-.139-.088-.341-.202-.202-.405.493-.81 1-1.227 1.492-.165.203-.329.531-.62.557-.227.012-.658-.228-.873-.304.026.076.038.165.064.24a7.93 7.93 0 0 0 1.796-2.44c.075-.177-.165-.317-.24-.152Zm-8.98 11.383c.81-.595 2.112-.468 2.972-.026.165.089.304-.164.14-.24-.95-.48-2.366-.632-3.264.025-.139.102 0 .355.152.241Zm-.532 1.922c1.012-.658 2.189-.835 3.34-.481.177.051.252-.227.075-.278a4.2 4.2 0 0 0-3.554.519c-.151.101-.012.341.14.24Z"/>
  <path fill="#191D23" d="M78.47 103.161a1.47 1.47 0 0 1-.367 1.315c-.127.139.076.342.202.202a1.797 1.797 0 0 0 .443-1.593c-.038-.177-.317-.101-.279.076Z"/>
  <path fill="#6D6C6C" d="M81.328 64.8c-1.303.57-5.906 2.758-8.031 7.842-1.796 4.288-.797 8.158-.063 11.004 1.669 6.475 5.653 10.687 7.904 12.71a8.883 8.883 0 0 1-.759 2.91c-1.024 2.238-2.479 2.857-3.604 4.489-.746 1.1-1.53 2.909-1.328 5.944a5.38 5.38 0 0 0 1.518-.063c.935-.164 2.39-.683 4.616-3.225 1.467-1.682 2.416-3.276 3.162-4.68a42.657 42.657 0 0 0 3.162-7.715c-3.693-2.858-6.046-5.78-7.462-7.841-1.91-2.782-2.618-4.705-2.846-5.375-.506-1.493-1.391-4.149-.822-7.399.202-1.126.316-1.783.759-2.593 1.138-2.074 2.972-2.491 3.604-4.553a4.3 4.3 0 0 0 .19-1.454Z" opacity=".23"/>
  <path fill="#6D6C6C" d="M77.521 69.999c-.822 1.897-1.847 5.008-1.745 8.866.227 8.044 5.198 13.356 6.576 14.734.43 1.353.873 3.44.557 5.944-.759 5.869-5.186 9.258-6.185 9.979a12.644 12.644 0 0 0 3.718-1.897c2.783-2.061 4.035-4.819 5.54-8.233a37.434 37.434 0 0 0 1.897-5.312c-3.756-2.91-6.096-5.932-7.45-8.006-1.428-2.175-2.769-4.262-3.401-7.361-.747-3.794-.038-6.981.493-8.714Z" opacity=".24"/>
  <path fill="#fff" stroke="#191D23" stroke-width=".5" d="M99.401 57.263c1.05 2.277.633 4.92.304 6.956a18.902 18.902 0 0 1-2.239 6.375c-.328 1.618-.645 4.35.177 7.487.987 3.794 3.112 6.16 5.085 8.347 1.682 1.872 4.591 4.654 9.043 6.969a102.89 102.89 0 0 1-1.202 4.072c-2.314 7.184-3.781 8.588-4.313 9.056-1.454 1.277-4.11 2.745-5.261 1.897-.936-.683-1.176-3.098 2.087-10.89a41.133 41.133 0 0 1-5.426-2.415c-2.226-1.176-8.36-4.452-12.23-9.815-5.856-8.132-4.376-18.149-3.87-20.918-.898-.418-2.517-1.328-3.086-3.023-1.037-3.06 2.036-6.59 4.528-8.107 5.375-3.301 14.127-.936 16.403 4.01Z"/>
  <path fill="#fff" d="M78.748 57.339c-.76 1.15-.835 2.618-.291 3.883.265.62.67 1.176 1.163 1.644.24.227.494.443.772.632.114.076 1.05.557.873.734.075-.013.151-.025.227-.025-1.631-1.202-2.896-2.998-2.858-5.085 0-.202-.342-.265-.367-.05a4.704 4.704 0 0 0 1.897 4.654l.152-.342c-1.77-.544-2.163-2.504-1.707-4.097-.127-.013-.253-.038-.367-.051.126 1.67.329 3.44 1.657 4.616.177.165.442-.1.265-.265-1.467-1.392-2.34-3.567-1.113-5.413a3.168 3.168 0 0 1-.341-.051c.05.29.063.57.012.86h.367a2.765 2.765 0 0 1 .304-2.314c-.114-.013-.228-.026-.342-.051.24 1.353-.265 2.706-.076 4.06.064.455.19.923.443 1.328a2.3 2.3 0 0 0 .455.531c.19.164.62.316.658.594l.228-.227-.81-.114c-.126-.013-.29.089-.227.228.215.544.556.923 1.087 1.176v-.329h-.392c-.05.114-.088.215-.139.329.152.076.304.152.443.227.05-.113.088-.215.139-.328-.291.012-.607-.633-.721-.848a5.061 5.061 0 0 1-.392-.974 4.999 4.999 0 0 1-.127-2.074c-.114.013-.227.025-.341.05a3.63 3.63 0 0 1 .392 2.568c.088-.038.19-.076.278-.114a4.832 4.832 0 0 0-.202-.341c-.101.05-.19.114-.291.164.215.127.417.253.632.367.215.127.405-.202.19-.329-.215-.126-.417-.253-.632-.366-.114-.064-.304.012-.291.164.038.303.139.493.392.67.101.076.253 0 .278-.114.202-.999.063-1.973-.43-2.858-.076-.126-.316-.126-.341.05-.14.937-.064 1.873.278 2.758.202.518.62 1.644 1.315 1.631.177 0 .24-.202.14-.329-.203-.24-.405-.328-.722-.34-.164-.014-.253.214-.139.328.253.24.57.278.86.063.102-.076.14-.265 0-.329-.442-.202-.733-.493-.91-.948l-.228.227.81.114c.151.026.252-.076.227-.227-.063-.443-.531-.544-.822-.81-.48-.443-.683-1.126-.746-1.758-.114-1.328.329-2.618.088-3.933-.025-.165-.265-.177-.341-.05a3.103 3.103 0 0 0-.342 2.604c.051.165.342.203.367 0a3.35 3.35 0 0 0-.013-1.062c-.025-.177-.265-.164-.341-.05-1.315 1.985-.417 4.363 1.176 5.868l.266-.266c-1.252-1.1-1.417-2.77-1.543-4.338-.013-.202-.316-.265-.367-.05-.518 1.808.013 3.958 1.973 4.566.215.063.316-.228.152-.342a4.32 4.32 0 0 1-1.72-4.224c-.127-.013-.253-.038-.367-.05-.038 2.225 1.315 4.135 3.048 5.412.063.05.177.026.228-.025.278-.278.177-.595-.114-.822-.607-.468-1.265-.759-1.796-1.34-1.189-1.316-1.556-3.264-.544-4.794.089-.266-.24-.456-.38-.253Z"/>
  <path fill="#191D23" d="M95.961 60.121c.279 1.455-.506 2.884-1.075 4.174-.48 1.1-.974 2.2-1.404 3.326-.809 2.15-1.302 4.376-1.239 6.69.114 4.2 1.872 8.335 4.895 11.282 1.985 1.923 4.376 3.34 6.766 4.693.164.088.304-.152.139-.24-2.112-1.202-4.224-2.429-6.058-4.048a16.066 16.066 0 0 1-3.997-5.362 16.543 16.543 0 0 1-1.467-6.413c-.05-2.327.468-4.565 1.303-6.728.519-1.353 1.138-2.669 1.695-3.997.468-1.1.923-2.226.695-3.44-.012-.202-.29-.114-.253.063Zm5.262 36.526c.341-1.441.999-2.795 1.72-4.085.67-1.189 1.467-2.314 2.706-2.947.165-.088.026-.328-.139-.24-1.227.62-2.036 1.707-2.706 2.871-.785 1.353-1.48 2.795-1.847 4.326-.051.177.215.252.266.075Zm1.239.519a11.99 11.99 0 0 1 4.199-6.83c.139-.114-.064-.316-.203-.202a12.191 12.191 0 0 0-4.262 6.956c-.038.177.228.253.266.076Zm7.158-4.768a3.859 3.859 0 0 0-.797 2.707c.038.43.164.847.342 1.239.227.506.177.81.037 1.315-.101.354-.202.696-.303 1.037a85.524 85.524 0 0 1-2.909 8.019c-.076.164.177.316.24.139a81.83 81.83 0 0 0 2.795-7.626c.203-.645.43-1.303.582-1.973.101-.456-.038-.721-.227-1.139-.519-1.201-.304-2.567.493-3.592.101-.126-.152-.278-.253-.126Zm-6.424 5.299a3.995 3.995 0 0 1 2.112-1.113c.177-.038.101-.304-.076-.278-.86.151-1.619.569-2.239 1.189-.126.126.076.328.203.202Zm4.515-6.653c-.203.43-.418.848-.658 1.252-.228.393-.607.772-.784 1.177-.266.582.594.569.999.67.051.013.101 0 .139-.038.632-.734 1.24-1.48 1.53-2.403.051-.177-.215-.253-.278-.076-.164.531-.43 1-.759 1.442-.114.152-.392.607-.569.696-.152.076-.62.025-.759-.089-.126 0-.139-.025-.05-.063.076-.114.164-.215.24-.329.152-.215.304-.443.443-.683.278-.455.531-.936.759-1.43.075-.15-.178-.303-.253-.126Zm-6.628 12.648c.835-.316 2.15-.607 2.833.152.127.139.329-.064.203-.203-.759-.835-2.176-.569-3.112-.215-.177.051-.101.329.076.266Z"/>
  <path fill="#191D23" d="M100.666 105.273c.48-.19.961-.329 1.479-.367.393-.025.848.114 1.227.063.519-.076.671-.594.759-1.075.038-.177-.24-.253-.278-.076a2.137 2.137 0 0 1-.101.38c-.127.341-.317.43-.683.455-.266.013-.544-.051-.822-.038a4.936 4.936 0 0 0-1.657.379c-.165.076-.089.355.076.279Zm-5.678-22.361c.556.253 1.366-.493 1.783-.797a6.25 6.25 0 0 0 1.695-1.808c.088-.152-.152-.304-.24-.14a5.505 5.505 0 0 1-1.367 1.544c-.278.215-1.34 1.138-1.707.96-.177-.075-.329.165-.164.241Zm2.732 2.947c1.049-.354 1.909-1.316 2.491-2.226.101-.152-.152-.291-.24-.14-.544.836-1.341 1.771-2.328 2.1-.177.05-.101.33.076.266Zm-14.761-5.4c-.266-1.151 1.176-1.505 1.973-1.1.683.353 1.113 1.011 1.328 1.732.19.632.253 1.315.278 1.986.038.898-.645 1.618-1.568 1.264-.165-.063-.24.203-.076.279.708.278 1.606-.064 1.86-.81.189-.544.037-1.252-.039-1.809-.076-.556-.19-1.113-.443-1.618-.417-.835-1.277-1.569-2.25-1.505-.848.05-1.556.784-1.367 1.656.076.177.342.102.304-.076Z"/>
  <path fill="#191D23" d="M83.301 81.306c-.076-.683.392-1.303 1.126-1.227.594.063.986.582 1.188 1.1.14.38.24.81.228 1.215-.013.91-.733 1.403-1.58.986-.165-.076-.304.165-.14.24.658.33 1.417.33 1.809-.392.38-.683.164-1.682-.14-2.352-.303-.658-.935-1.227-1.707-1.088-.733.14-1.15.797-1.075 1.505.025.203.316.203.291.013Zm-2.125-11.75c.696-.455 1.48-.683 2.264-.91.898-.253 1.783-.405 2.72-.266.176.025.252-.253.075-.278-.91-.127-1.77-.038-2.656.202-.885.24-1.783.493-2.555 1-.151.1-.012.353.152.252Z"/>
  <path fill="#191D23" d="M81.075 70.695a6.168 6.168 0 0 1 1.48-.721.155.155 0 0 0 .101-.177 2.587 2.587 0 0 1 0-.936c.025-.177-.24-.253-.278-.076-.064.367-.064.72 0 1.088.038-.064.063-.114.1-.178a6.44 6.44 0 0 0-1.542.747c-.152.1-.013.354.14.253Zm2.782-2.239c.025.29-.063.872.329.936.556.1 1.252-.064 1.808-.127.064-.013.127-.038.14-.101.037-.253.088-.519.126-.772.025-.177-.24-.252-.278-.075-.038.253-.089.518-.127.771.05-.038.089-.076.14-.101-.38.05-.747.088-1.126.101-.101.013-.38.063-.48.025-.28-.088-.216-.43-.241-.657-.025-.19-.304-.19-.291 0Zm-2.491 5.363a11.773 11.773 0 0 1 6.108-1.569c.177 0 .177-.278 0-.29-2.2-.038-4.338.505-6.248 1.606-.164.1-.025.341.14.253Z"/>
  <path fill="#191D23" d="M83.453 72.883c.101.43.177.86.215 1.302.012.102.088.152.177.14a54.429 54.429 0 0 1 3.769-.62c.177-.026.177-.304 0-.291-1.29.152-2.568.367-3.845.62.063.05.114.088.177.139a8.483 8.483 0 0 0-.228-1.379c-.038-.164-.316-.088-.265.089Z"/>
  <path fill="#191D23" d="M87.398 72.314c.089.354.14.72.14 1.087 0 .177.278.19.29 0 0-.392-.05-.784-.139-1.163-.063-.177-.329-.102-.29.076Z"/>
  <path fill="#191D23" d="M83.845 73.553a10.172 10.172 0 0 1 3.68-.645c.177 0 .177-.278 0-.29a10.577 10.577 0 0 0-3.756.644c-.177.089-.101.354.076.291Zm7.777 17.846a12.894 12.894 0 0 0 4.338-3.794c.114-.152-.139-.291-.24-.14a12.401 12.401 0 0 1-4.237 3.694c-.164.088-.025.328.14.24Zm4.668-6.767a12.23 12.23 0 0 1-2.238 3.137c-.127.126.076.329.202.202a11.94 11.94 0 0 0 2.29-3.2c.075-.164-.165-.303-.253-.139Z"/>
  <path fill="#191D23" d="M93.85 89.805c.34.443.72.86 1.1 1.252.126.127.328-.076.202-.202a14.673 14.673 0 0 1-1.1-1.252c-.114-.14-.317.063-.203.202Z"/>
  <path fill="#191D23" d="M94.936 90.905a4.367 4.367 0 0 1-1.606 1.505c-.164.089-.012.33.14.24a4.76 4.76 0 0 0 1.707-1.618c.101-.14-.152-.291-.24-.127Zm-1.479-5.312c.392.354.784.709 1.164 1.063.139.126.341-.076.202-.203a97.405 97.405 0 0 1-1.163-1.062c-.14-.114-.342.076-.203.202Z"/>
  <path fill="#191D23" d="M93.482 85.467c.341-.341.67-.708.986-1.075.114-.139-.088-.341-.202-.202-.316.38-.645.733-.987 1.075-.126.126.076.329.203.202Z"/>
  <path fill="#191D23" d="M94.469 84.076a13.91 13.91 0 0 1-.949-1.176c-.013.063-.013.113-.025.177.329-.355.657-.721.986-1.075.127-.14-.076-.342-.202-.203-.329.354-.658.721-.987 1.075-.038.038-.063.127-.025.177.316.43.645.835 1 1.227.126.14.328-.063.202-.202Zm.316 2.529a6.492 6.492 0 0 0 1.505-2.137c.076-.165-.177-.317-.24-.14a6.417 6.417 0 0 1-1.455 2.075c-.14.126.063.328.19.202Zm-1.303-4.882c-.354.367-.683.734-1.011 1.113-.114.14.088.342.202.203.329-.38.658-.76 1.012-1.113.126-.14-.076-.342-.203-.203Zm-.532 1.86c.165.253.342.505.506.771.102.152.342.013.24-.139-.164-.253-.34-.506-.505-.772-.089-.151-.342-.012-.24.14Zm-7.018-4.617a4.962 4.962 0 0 1 1.315 4.819c-.05.177.228.253.278.076a5.256 5.256 0 0 0-1.39-5.097c-.14-.127-.342.076-.203.202Zm5.096-13.419c.24 2.618-1.113 4.983-1.517 7.513-.38 2.314.038 4.68 1.113 6.754.088.164.329.012.24-.14a10.624 10.624 0 0 1-.91-7.386c.53-2.225 1.568-4.376 1.353-6.728-.013-.19-.304-.19-.279-.013Z"/>
  <path fill="#191D23" d="M89.75 72.25a3.3 3.3 0 0 0 2.682.05c.165-.075.089-.34-.076-.278-.81.342-1.657.342-2.453-.025-.165-.063-.317.177-.152.253Zm.684-1.884c.746.43 1.644.404 2.352-.076.152-.101.013-.354-.139-.24a1.903 1.903 0 0 1-2.061.075c-.165-.1-.304.152-.152.24Zm7.538-10.396a50.423 50.423 0 0 1-1.935 6.943c-.038.114.076.19.177.177a8.478 8.478 0 0 1 2.53-.013c.177.026.252-.253.075-.278a9.52 9.52 0 0 0-2.68.013l.176.177a50.913 50.913 0 0 0 1.935-6.944c.038-.177-.24-.253-.278-.076Z"/>
  <path fill="#6D6C6C" d="M84.54 54.708c-.822 3.44-2.794 13.672 2.302 24.107.709 1.454 3.466 6.842 9.284 11.762a38.25 38.25 0 0 0 8.941 5.628c-.48.278-.961.569-1.454.847-.569 2.681-.987 4.655-1.189 5.628-.721 3.403-1.062 5.11-.506 5.54.886.683 3.175-.557 4.604-1.96 1.265-1.252 1.733-2.543 2.808-5.793.961-2.884 1.732-5.3 2.301-7.07a40.198 40.198 0 0 1-5.286-3.668c-1.986-1.631-4.515-3.705-6.387-6.728-2.644-4.262-3.01-8.79-2.896-11.838a18.524 18.524 0 0 0 1.618-3.238c.481-1.252 2.644-6.855.772-10.308-1.91-3.516-8.183-5.097-14.911-2.909Z" opacity=".19"/>
  <path fill="#6D6C6C" d="M93.533 58.325c-.961 2.669-2.213 7.285-1.619 12.99.632 6.07 3.048 10.269 4.642 12.988 3.313 5.654 7.474 9.372 10.56 11.636a29.352 29.352 0 0 1-.822 5.223 27.741 27.741 0 0 1-2.63 6.678c.177.013.404.013.645-.025.86-.177 1.353-.81 1.517-1.037a13.132 13.132 0 0 0 1.986-2.327c.986-1.48 1.404-2.821 2.201-5.439.91-2.985 1.505-4.97 1.745-5.767a33.833 33.833 0 0 1-7.424-5.097c-1.328-1.202-3.073-2.795-4.528-5.097-2.72-4.35-2.972-9.043-2.782-12.066 1.125-1.593 3.212-5.084 3.01-9.624a13.688 13.688 0 0 0-.468-3.01c-2.011-.026-4.022-.026-6.033-.026Z" opacity=".29"/>
  <path fill="#fff" stroke="#191D23" stroke-width=".5" d="M80.391 23.343c-1.947-.772-6.172 5.817-6.817 6.817-1.328 2.074-3.06 5.223-4.388 9.498-3.466.86-6.931 1.732-10.384 2.593-3.39-2.113-4.528-2.416-4.793-2.113-.19.228-.026.924.24 1.379.304.531.658.607.645.81-.025.48-1.91.518-3.415.973-3.048.91-5.147 3.617-4.869 4.06.38.582 5.666-1.998 5.679-1.948.012.038-2.618.658-3.567 2.682-.367.771-.556 1.884-.076 2.276.266.215.709.152 2.277-.493 1.985-.81 3.263-1.505 3.313-1.417.089.152-3.996 2.568-3.73 3.15.215.468 3.149-.481 3.477-.582a22.836 22.836 0 0 0 5.224-2.454 14.762 14.762 0 0 0 6.412.898c5.11-.443 8.335-3.49 9.17-4.3 1.732-1.682 2.744-4.237 4.793-9.334 1.202-3.01 2.669-7.222 1.619-11.206-.14-.53-.341-1.1-.81-1.29Z"/>
  <path fill="#191D23" d="M48.873 50.117c1.063-1.518 2.934-2.074 4.553-2.82.215-.101.026-.43-.19-.33-1.681.785-3.566 1.367-4.679 2.96-.152.203.177.392.316.19Zm6.009-5.717c.746.962 1.884 1.468 3.098 1.417.24-.013.24-.392 0-.38a3.302 3.302 0 0 1-2.82-1.302c-.165-.19-.43.076-.278.266Zm17.086-11.749a6.178 6.178 0 0 0 2.479 2.91c.202.126.405-.203.19-.33a5.669 5.669 0 0 1-2.302-2.681c-.089-.228-.455-.127-.367.101Z"/>
  <path fill="#191D23" d="M73.549 30.273a6.181 6.181 0 0 0 2.2 1.834c-.025-.076-.063-.139-.088-.215a15.75 15.75 0 0 1-1.214 3.34c-.114.214.215.404.329.189.544-1.1.96-2.239 1.252-3.428.012-.075-.013-.177-.089-.215a5.737 5.737 0 0 1-2.074-1.694c-.126-.19-.455 0-.316.19Z"/>
  <path fill="#191D23" d="M72.955 31.45a7.752 7.752 0 0 0 2.061 1.948c.203.126.392-.19.19-.33a7.077 7.077 0 0 1-1.922-1.808c-.14-.19-.468 0-.33.19Zm.012 15.265c-.266-1.91 1.303-3.453 3.187-3.238.24.026.24-.354 0-.38-2.163-.24-3.857 1.594-3.554 3.72.025.24.392.138.367-.102ZM61.774 41.58a13.532 13.532 0 0 0-.114 3.782c.026.24.405.24.38 0a12.82 12.82 0 0 1 .1-3.68c.039-.241-.328-.342-.366-.102Z"/>
  <path fill="#191D23" d="M63.204 41.188c-.026.443-.063.898-.089 1.34-.013.115-.013.229-.025.342a1.016 1.016 0 0 1-.367.19c-.202.089-.405.152-.607.228-.228.088-.127.455.101.367.354-.127 1.063-.228 1.227-.608.088-.214.05-.53.076-.758l.076-1.088c.012-.253-.367-.253-.392-.013Zm5.982-1.998-.076 1.29c-.013.24.367.24.38 0l.075-1.29c.013-.24-.366-.24-.379 0Zm.038 2.062.076.645c.013.1.076.19.19.19.088 0 .202-.09.19-.19l-.077-.645c-.012-.102-.075-.19-.19-.19-.088 0-.202.088-.189.19ZM75.813 27.2c.771.582 2.289.278 3.123-.025a5.174 5.174 0 0 0 2.505-1.923c.139-.202-.19-.392-.33-.19a4.863 4.863 0 0 1-2.276 1.746c-.733.265-2.137.582-2.833.063-.202-.139-.392.19-.19.329Z"/>
  <path fill="#191D23" d="M77.027 25.897a4.114 4.114 0 0 0 4.073-1.859c.126-.202-.202-.392-.329-.19-.784 1.215-2.2 1.898-3.642 1.695-.24-.05-.342.316-.102.354Z"/>
  <path fill="#6D6C6C" d="M81.53 26.682a36.935 36.935 0 0 0-2.985 4.717c-2.125 4.035-2.567 5.92-4.642 8.651-.771 1.025-2.074 2.53-4.11 4.073-1.556.316-3.782.809-6.425 1.492-3.225.847-4.882 1.29-6.741 2.125-1.53.683-3.693 1.846-6.058 3.845a18.538 18.538 0 0 0 4.3-.898c1.86-.62 3.313-1.43 4.35-2.125a14.47 14.47 0 0 0 3.858.898c4.174.354 7.298-1.29 8.322-1.847.949-.518 2.681-1.48 4.186-3.402.456-.569.873-1.227 1.948-3.63 1.708-3.794 2.669-5.957 3.352-9.157.24-1.1.518-2.731.645-4.742Z" opacity=".24"/>
  <path fill="#6D6C6C" d="M49.19 49.295c.177-.228.734-.898 2.618-1.619.696-.265 2.644-.999 2.897-.556.076.139.025.417-.62 1.113a14.95 14.95 0 0 1-3.402 1.67c-.76.265-1.48.442-2.125.556.114-.291.29-.721.632-1.164Z" opacity=".26"/>
  <path fill="#6D6C6C" d="M81.277 30.59c-.81 1.404-2.2 3.845-3.934 6.918-2.478 4.414-3.882 6.564-5.046 7.677-1.404 1.328-5.059 4.022-13.217 3.238 1.328.493 5.464 1.808 10.169.19 3.39-1.177 5.388-3.29 5.868-3.808.494-.544 1.493-1.72 3.301-6.045a78.799 78.799 0 0 0 2.859-8.17Z" opacity=".34"/>
  <path fill="#6D6C6C" d="M51.226 51.483a55.646 55.646 0 0 0 5.375-2.1c1.48-.67 2.429-1.176 2.48-1.087.063.101-1.417 1.189-3.15 1.973-1.821.81-3.49 1.1-4.705 1.214Z" opacity=".47"/>
  <path fill="#191D23" stroke="#191D23" stroke-width=".5" d="M90.927 23.62c.72-.227 11.168-3.364 17.77 2.67 7.158 6.538 3.503 18.11 1.808 23.46-1.808 5.742-4.173 7.349-5.413 7.968-2.39 1.202-4.73.797-7.07.456-3.984-.582-9.625-1.215-16.935-1.417.797-10.08 1.606-20.173 2.403-30.253l7.437-2.883Z"/>
  <path fill="#fff" stroke="#191D23" stroke-width=".5" d="M100.387 28.25c2.796.038 7.197.544 11.029 3.415 2.416 1.808 4.718 4.641 8.019 15.847 4.325 14.633 2.668 17.453 6.614 22.462.557.708 5.831 7.196 14.039 8.018 10.206 1.025 18.073-7.437 23.461-13.229 9.334-10.042 13.052-21.412 14.633-28.874 1.543.468 3.073.936 4.616 1.404-4.869 12.457-10.598 21.779-15.037 28.077-8.487 12.028-13.508 14.76-16.644 16.037-2.252.923-9.916 4.047-18.251.797-7.74-3.01-11.269-9.663-12.432-11.826-1.316-2.466-1.404-3.553-3.415-12.432-3.896-17.239-5.236-20.464-8.221-22.462-1.682-1.126-4.654-2.365-9.827-1.606.48-1.885.948-3.756 1.416-5.628Z"/>
  <path fill="#191D23" d="M108.924 35.282a4.41 4.41 0 0 1 1.998-3.213c.203-.126.013-.455-.189-.329a4.817 4.817 0 0 0-2.188 3.542c-.026.253.354.24.379 0Zm3.82 4.882a4.724 4.724 0 0 1 2.947-2.39c.24-.064.139-.43-.101-.367a5.063 5.063 0 0 0-3.175 2.554c-.113.228.215.418.329.203Zm-.683-2.985a3.312 3.312 0 0 1 2.466-1.682c.24-.025.24-.405 0-.38a3.704 3.704 0 0 0-2.795 1.872c-.114.215.215.405.329.19Zm3.415 12.179a3.973 3.973 0 0 1 3.402-1.656c.24.012.24-.367 0-.38a4.319 4.319 0 0 0-3.731 1.847c-.152.202.177.392.329.19Zm-.494-4.059c.645-1.05 1.871-1.404 3.022-1.569.241-.037.139-.404-.101-.366-1.265.177-2.542.607-3.25 1.745-.127.202.202.392.329.19Zm-1.404-2.163a3.498 3.498 0 0 1 2.909-1.708c.24-.012.24-.392 0-.38a3.88 3.88 0 0 0-3.238 1.885c-.126.215.203.405.329.203Zm3.605 14.658a5.194 5.194 0 0 1 4.085-1.682c.241.013.241-.367 0-.38a5.596 5.596 0 0 0-4.35 1.797c-.177.177.101.442.265.265Zm-.519-2.302a4.529 4.529 0 0 1 3.921-1.656c.24.025.24-.355 0-.38a4.849 4.849 0 0 0-4.186 1.77c-.165.178.101.456.265.266Zm-.556-2.529a4.143 4.143 0 0 1 2.769-1.467c.241-.026.241-.405 0-.38-1.188.127-2.251.658-3.035 1.581-.164.19.101.456.266.266Zm1.088-2.074a3.781 3.781 0 0 1 2.618-.67c.24.024.24-.355 0-.38a4.12 4.12 0 0 0-2.808.72c-.202.153-.013.481.19.33Zm3.882 20.274a5.704 5.704 0 0 1 3.301-2.631c.228-.076.14-.443-.101-.367a6.052 6.052 0 0 0-3.528 2.808c-.127.215.202.405.328.19Zm-1.568-3.339a4.594 4.594 0 0 1 3.617-2.252c.241-.012.241-.392 0-.38a5.019 5.019 0 0 0-3.946 2.442c-.126.202.203.392.329.19Zm-.986-4.25a4.325 4.325 0 0 1 3.857-1.733c.24.026.24-.354 0-.38a4.688 4.688 0 0 0-4.186 1.923c-.152.203.177.392.329.19Zm1.138.936a5.37 5.37 0 0 1 3.225-1.012c.241 0 .241-.379 0-.379a5.692 5.692 0 0 0-3.414 1.063c-.203.139-.013.468.189.328Zm14.444 12.205c.253.797.379 1.631.341 2.466-.038.784-.164 1.77-.809 2.29-.19.151.075.417.265.265.62-.519.784-1.353.886-2.125.126-1.024 0-2.036-.317-3.01-.076-.215-.442-.114-.366.114Zm4.552 1.859c.57 1.278.443 2.707-.303 3.883-.127.202.202.392.329.19a4.483 4.483 0 0 0 .303-4.263c-.101-.227-.43-.038-.329.19Zm8.045-.911c1.037 1.278 1.29 2.985.733 4.528-.088.228.278.33.367.101.62-1.669.291-3.516-.822-4.894-.165-.19-.43.076-.278.266Zm17.706-13.482c.847.342 1.404 1.113 1.543 1.999.038.24.405.139.367-.101-.152-1.037-.848-1.872-1.809-2.264-.228-.089-.329.278-.101.366Zm6.639-9.131a3.015 3.015 0 0 1 1.745 1.834c.076.227.443.126.367-.101a3.41 3.41 0 0 0-2.011-2.1c-.228-.088-.316.278-.101.367ZM155.24 72.908c.948 1.252 1.34 2.782 1.087 4.325-.038.24.329.342.367.102a6.012 6.012 0 0 0-1.126-4.617c-.151-.19-.48 0-.328.19Zm-3.63 2.896c.961 1.113 1.985 2.467 1.442 4.01-.076.227.29.329.366.1.582-1.681-.493-3.161-1.543-4.388-.164-.164-.43.101-.265.278Zm-26.927.342a4.744 4.744 0 0 1 2.554-3.112c.215-.1.026-.43-.189-.328a5.1 5.1 0 0 0-2.732 3.339c-.063.24.303.341.367.1Zm2.201 2.175a8.282 8.282 0 0 1 3.339-3.604c.215-.127.025-.456-.19-.33a8.475 8.475 0 0 0-3.465 3.745c-.127.215.202.417.316.19Zm-3.795-5.248a4.246 4.246 0 0 1 2.138-1.96c.227-.09.126-.456-.102-.367-1.024.417-1.859 1.15-2.365 2.137-.101.202.215.405.329.19Zm36.88-4.288a3.877 3.877 0 0 1 2.568 2.846c.05.24.417.139.367-.102a4.257 4.257 0 0 0-2.821-3.11c-.24-.077-.341.29-.114.366Zm2.353-1.05a2.636 2.636 0 0 1 1.278 1.505c.075.228.442.127.366-.101a3.077 3.077 0 0 0-1.454-1.733c-.215-.114-.405.215-.19.329Zm4.464-6.45c.683.24 1.252.683 1.669 1.277.139.203.468.013.329-.19a3.92 3.92 0 0 0-1.897-1.454c-.228-.076-.329.29-.101.367Zm7.424-13.077c1.05.177 1.973.72 2.593 1.58.139.19.468 0 .328-.19a4.342 4.342 0 0 0-2.82-1.757c-.24-.038-.341.329-.101.367Zm-30.391 30.809a3.867 3.867 0 0 1 .189 3.339c-.088.227.279.329.367.1a4.294 4.294 0 0 0-.228-3.629c-.113-.215-.442-.025-.328.19Zm15.607-7.348a3.354 3.354 0 0 1 1.05 2.554c0 .24.379.24.379 0a3.714 3.714 0 0 0-1.164-2.82c-.177-.177-.442.101-.265.266Z"/>
  <path fill="#6D6C6C" d="M99.692 29.856c4.401 1.277 10.725 3.908 14.658 9.79 3.744 5.59 2.239 9.169 5.413 19.995 2.315 7.892 4.516 15.366 10.966 19.021 8.221 4.655 18.326.279 20.135-.556 5.046-2.327 8.208-5.894 13.052-11.383a71.985 71.985 0 0 0 7.082-9.447c2.795-4.44 6.463-11.396 8.879-20.768.936.253 1.872.519 2.795.772a105.659 105.659 0 0 1-4.92 11.585c-2.896 5.818-5.539 9.663-10.813 17.378-2.075 3.023-3.567 5.071-5.793 7.436-2.062 2.176-3.82 4.048-6.564 5.793-1.733 1.1-7.222 4.477-14.772 4.06-4.313-.24-7.437-1.62-8.499-2.125-.911-.43-5.439-2.656-9.069-7.816-2.479-3.516-3.326-7.133-5.021-14.38-1.467-6.248-1.593-9.157-3.668-15.633-1.505-4.704-2.415-6.247-3.768-7.525-3.567-3.39-8.588-3.415-10.814-3.275.278-.987.493-1.96.72-2.922Z" opacity=".29"/>
  <path fill="#fff" stroke="#191D23" stroke-width=".5" d="M79.443 23.697c-1.645 2.061-1.683 6.387-1.784 15.05-.025 2.82.038 5.148.101 6.716-1.745 2.567-3.49 5.135-5.248 7.715a32.644 32.644 0 0 0 6.918 4.085c8.398 3.668 16.277 2.884 20.223 2.188a171.791 171.791 0 0 0 3.605-11.37c3.718-13.356 2.934-16.935 1.745-19.35-1.214-2.492-2.934-3.947-3.718-4.592-6.425-5.362-17.795-5.54-21.842-.442Z"/>
  <path fill="#191D23" d="M80.417 48.005c.329.329.708.569 1.125.746.228.089.33-.278.102-.367a3.132 3.132 0 0 1-.962-.645c-.177-.164-.442.101-.265.266Zm-2.795-3.908a4.405 4.405 0 0 0 .86 2.757c.1.152.354 0 .24-.14a4.042 4.042 0 0 1-.81-2.605c0-.19-.278-.19-.29-.012Zm15.076-1.214c4.236 1.277 8.929.468 12.495-2.15.152-.101 0-.354-.139-.24a13.993 13.993 0 0 1-12.28 2.111c-.178-.05-.254.228-.076.279Z"/>
  <path fill="#191D23" d="M92.544 42.68c-.075.354-.392 1.1-.19 1.455.216.354.987.404 1.341.468 1.24.253 2.517.341 3.782.253a14.458 14.458 0 0 0 7.209-2.48c.152-.1.013-.353-.139-.24a14.02 14.02 0 0 1-6.172 2.353 14.552 14.552 0 0 1-3.238.05 16.673 16.673 0 0 1-1.77-.29c-.43-.102-.721-.051-.734-.646-.013-.265.114-.581.164-.834.064-.19-.215-.266-.253-.089ZM74.65 50.155a16.925 16.925 0 0 0 8.512 5.59c.177.05.253-.228.075-.278a16.584 16.584 0 0 1-8.385-5.514c-.114-.14-.316.063-.202.202Z"/>
  <path fill="#191D23" d="M73.777 51.395a97.4 97.4 0 0 1 1.315 1.15c.33.291.709.747 1.1.949.595.316.987-.228 1.266-.72.088-.165-.152-.305-.24-.14-.228.405-.418.772-.987.519-.253-.114-.531-.468-.746-.658-.494-.443-1-.873-1.493-1.316-.152-.1-.354.102-.215.215Zm5.135 2.63c-.494 1.214 1.05 1.77 1.96 2.137.797.33 2.163.797 2.542-.341.05-.177-.215-.253-.278-.076-.342 1.037-1.885.303-2.517 0-.632-.304-1.783-.759-1.43-1.644.064-.165-.214-.24-.277-.076Zm-3.289-5.312a17.045 17.045 0 0 0 5.338 3.883c.164.076.316-.164.139-.24a16.827 16.827 0 0 1-5.287-3.833c-.114-.151-.316.051-.19.19Zm5.198-16.77c-.417.05-.784-.696-.872-1a2.103 2.103 0 0 1 .063-1.39c.354-.899 1.303-1.443 2.239-1.101.872.316 1.315 1.34 1.024 2.2-.164.494-.544.873-1.012 1.088-.417.19-1.126.405-1.556.165-.164-.089-.303.151-.139.24.506.291 1.29.089 1.784-.14a2.17 2.17 0 0 0 1.113-1.087c.455-1.024-.013-2.289-1.063-2.719-1.138-.468-2.327.228-2.706 1.328a2.34 2.34 0 0 0 .05 1.682c.165.392.582 1.063 1.075 1 .177 0 .19-.279 0-.266ZM77.672 41.1a8.515 8.515 0 0 0 5.45 1.871c.178 0 .19-.29 0-.29a8.243 8.243 0 0 1-5.248-1.784c-.139-.114-.341.089-.202.203Z"/>
  <path fill="#191D23" d="M77.8 39.999c-.026.101 1.2.556 1.39.632.203.089.532.152.709.291.341.279.151.873.076 1.24-.038.177.24.253.278.076.063-.317.278-1.025.126-1.328-.126-.266-.683-.38-.923-.481-.493-.202-.987-.455-1.493-.632-.164-.05-.354-.101-.417.114-.076.19.203.265.253.088Zm6.967 9.941a28.148 28.148 0 0 0 10.674 1.619c.177-.013.19-.291 0-.291a28 28 0 0 1-10.598-1.606c-.177-.063-.253.215-.076.278Zm-7.032-15.544c.557.304 1.139.468 1.758.595.354.076.848.063.974.48.114.367-.013.949-.025 1.328-.013.178.278.178.29 0 .026-.493.09-1.062.013-1.555-.038-.228-.063-.266-.278-.354-.38-.152-.86-.165-1.265-.266-.468-.114-.91-.253-1.328-.493-.151-.076-.303.164-.139.265Z"/>
  <path fill="#191D23" d="M78.14 36.331c.405.443 1.392.468 1.948.582.848.177 1.708.316 2.568.443.177.025.253-.253.076-.279a42.518 42.518 0 0 1-2.214-.366c-.354-.064-.695-.14-1.037-.215-.328-.076-.898-.089-1.138-.355-.126-.151-.329.051-.202.19Zm11.572 10.561c-.14.493-.202 1-.228 1.505 0 .177.279.177.291 0a6.17 6.17 0 0 1 .215-1.43c.038-.176-.227-.252-.278-.075Z"/>
  <path fill="#191D23" d="M89.877 46.98c1.897.09 3.984-.037 5.792.62.178.064.253-.215.076-.278-1.834-.658-3.946-.531-5.868-.62-.177-.025-.177.266 0 .279Zm-.101 1.695c1.822.152 3.643.304 5.452.443.177.012.177-.266 0-.291a864.666 864.666 0 0 0-5.452-.443c-.177-.012-.177.279 0 .291Z"/>
  <path fill="#191D23" d="M95.518 47.499c-.038.442-.14.86-.316 1.277-.076.165.202.24.278.076.177-.43.29-.885.329-1.353.012-.177-.278-.177-.291 0Zm-4.629-.455a5.21 5.21 0 0 0-.228 1.454c0 .177.278.177.291 0 0-.468.076-.936.215-1.379.05-.177-.228-.252-.278-.075Zm1.277.05a5.67 5.67 0 0 0-.329 1.505c-.012.177.266.177.291 0 .038-.493.152-.961.317-1.429.063-.164-.215-.24-.279-.076Zm1.48.064c-.151.468-.29.936-.442 1.404-.05.177.215.253.278.075.152-.468.29-.935.443-1.403.05-.178-.215-.253-.279-.076Zm2.391 11.585a5.11 5.11 0 0 1-.266 1.05c-.063.176.215.252.278.075a4.9 4.9 0 0 0 .266-1.05c.025-.177-.253-.252-.278-.075Zm1.365-.063c0 .303-.064.594-.203.86-.088.164.165.303.24.139.165-.317.254-.658.24-1.012.013-.177-.277-.177-.277.012Zm1.417-.216c0 .253-.064.494-.203.709-.1.151.152.303.24.139.165-.253.241-.557.241-.86.013-.165-.278-.165-.278.012ZM87.967 31.348c-.151 1.227-.29 2.441-.442 3.668-.026.24-.152.645.012.86.215.278.784.24 1.088.291 2.276.354 4.578.594 6.868.746.177.013.177-.278 0-.29a80.868 80.868 0 0 1-6.071-.633c-.24-.038-.48-.076-.734-.114-.202-.025-.569-.012-.733-.114-.405-.253-.127-1.1-.076-1.492.114-.974.227-1.948.354-2.934.05-.177-.24-.177-.266.012Z"/>
  <path fill="#191D23" d="M88.182 31.335c2.2-.366 4.426-.113 6.614.24.494.077 1.303.026 1.455.608.101.392-.025.986-.063 1.391a14.92 14.92 0 0 1-.67 3.137c-.051.177.214.253.278.075.379-1.15.62-2.34.708-3.553.025-.405.164-1-.013-1.392-.139-.316-.455-.341-.759-.392-2.516-.442-5.071-.81-7.613-.38-.19.026-.114.304.063.267Z"/>
  <path fill="#191D23" d="M88.03 32.853a15.864 15.864 0 0 1 8.196.734c.177.063.24-.215.076-.278a16.17 16.17 0 0 0-8.348-.734c-.177.038-.1.304.076.278Z"/>
  <path fill="#191D23" d="M89.535 31.006a6.44 6.44 0 0 0-.19 1.392c0 .177.279.177.292 0 .012-.443.063-.886.177-1.316.038-.177-.24-.253-.278-.076Zm1.999.152a4.683 4.683 0 0 0-.114 1.19c0 .176.291.189.291 0-.013-.38.026-.747.114-1.114.025-.177-.253-.253-.29-.076Zm2.504.254c-.076.43-.114.86-.127 1.29 0 .177.279.177.291 0 0-.405.038-.81.114-1.215.025-.177-.253-.252-.278-.075Zm-2.1 2.643a64.35 64.35 0 0 0-.278 2.25c-.025.178.266.178.29 0 .077-.72.165-1.453.266-2.174.026-.178-.253-.253-.278-.076Z"/>
  <path fill="#191D23" d="M92.065 34.194c1.252.215 2.504.442 3.756.657.177.026.253-.24.076-.278-1.252-.215-2.505-.442-3.757-.657-.177-.038-.252.24-.075.278Zm.505.822c-.151.455-.24.923-.303 1.391-.025.177.266.177.291 0 .05-.442.152-.885.29-1.315.052-.177-.227-.253-.277-.076Z"/>
  <path fill="#191D23" d="M92.71 35.294c.948.038 1.91.076 2.858.127.177.013.177-.278 0-.291-.948-.038-1.91-.076-2.858-.127-.19-.012-.19.279 0 .291Zm-4.806-1.277 1.353.227c-.038-.063-.063-.113-.1-.177a18.608 18.608 0 0 0-.43 1.847c-.026.177.24.253.277.076.114-.62.253-1.24.43-1.847.026-.063-.025-.164-.1-.177-.456-.076-.899-.152-1.354-.227-.177-.026-.266.253-.076.278Zm-.152 2.744c2.39.62 4.844.91 7.31.886.178 0 .19-.291 0-.291a27.927 27.927 0 0 1-7.234-.873c-.177-.038-.253.24-.076.278Zm-4.35 3.504a66.59 66.59 0 0 1-.797 4.439c-.038.177.24.253.278.076a65.17 65.17 0 0 0 .797-4.44c.025-.177-.253-.253-.278-.075Zm5.261 13.444c-.064.974-.48 1.948-.797 2.871a73.389 73.389 0 0 1-1 2.795c-.063.177.216.24.279.076.38-1 .734-2.011 1.075-3.035.29-.873.67-1.784.72-2.707.014-.177-.265-.177-.277 0Z"/>
  <path fill="#191D23" d="M88.777 53.684c2.226.404 4.464.645 6.716.746l-.14-.14a11.938 11.938 0 0 1-1.138 5.616c-.076.165.164.304.24.14a12.271 12.271 0 0 0 1.177-5.768.14.14 0 0 0-.14-.139 51.014 51.014 0 0 1-6.64-.734c-.177-.025-.252.253-.075.279Z"/>
  <path fill="#191D23" d="M88.625 55.441c2.1.405 4.224.898 6.374.721.178-.012.178-.303 0-.29-2.124.19-4.224-.304-6.298-.709-.177-.038-.253.24-.076.279Zm-.493 1.215a13.43 13.43 0 0 0 6.766.847c.177-.025.177-.303 0-.29a13.29 13.29 0 0 1-6.69-.836c-.165-.063-.24.203-.076.279Z"/>
  <path fill="#191D23" d="M90.977 54.012a23.55 23.55 0 0 0-.443 1.62c-.038.176.228.252.278.075.127-.544.279-1.087.443-1.619.05-.164-.215-.24-.278-.076Zm1.708 2.112-.227 1.177c-.038.177.24.253.278.076l.228-1.177c.037-.177-.24-.253-.279-.076Zm-3.921 2.808c-.114-.012-.126-.177-.101-.253a.358.358 0 0 1 .177-.227c.177-.114.38-.063.493.114.215.354-.215.733-.544.48-.139-.114-.341.089-.202.203.278.215.683.202.923-.051.253-.266.19-.72-.088-.949-.291-.24-.721-.151-.936.152-.215.304-.127.784.278.835.177 0 .177-.278 0-.304Zm2.15.203c-.19-.038-.303-.24-.19-.405.114-.19.367-.19.519-.038.126.126.177.341 0 .443-.127.075-.316.075-.455.063-.177 0-.177.278 0 .29.278.013.645-.025.796-.303.165-.316-.05-.696-.354-.822a.614.614 0 0 0-.797.316.559.559 0 0 0 .405.746c.177.026.253-.252.076-.29Zm2.1.101c-.405-.101-.203-.696.177-.544.139.05.227.24.19.38-.051.177-.254.278-.43.24-.178-.038-.253.24-.076.278.328.076.683-.101.771-.43.076-.29-.101-.645-.392-.733-.29-.089-.645.075-.734.379-.1.316.114.645.418.72.177.026.253-.24.076-.29Zm1.606-35.413a19.73 19.73 0 0 1 5.173 3.162c.19.152.455-.114.265-.266a20.097 20.097 0 0 0-5.337-3.263c-.228-.101-.316.266-.101.367Z"/>
  <path fill="#191D23" d="M94.759 23.57c.228-.228.493-.506.797-.645.455-.203.771-.089 1.201.126.443.215.86.481 1.252.772.898.657 1.695 1.442 2.492 2.226.177.177.443-.101.266-.266-1.012-.999-2.037-2.01-3.263-2.757-.405-.24-1.088-.708-1.594-.658-.519.051-1.063.595-1.404.936-.19.165.076.443.253.266Z"/>
  <path fill="#191D23" d="M100.109 26.972c.202-.253.404-.519.619-.759.152-.19-.113-.455-.265-.265l-.683.834c-.063.076-.013.215.063.266.114.05.202 0 .266-.076Zm-1.897-1.669c.025-.38.316-.67.67-.747.24-.05.14-.417-.101-.366-.531.113-.91.581-.949 1.113-.012.24.367.24.38 0Zm.872.619a.62.62 0 0 1 .557-.442c.24-.013.24-.392 0-.38-.43.026-.797.304-.924.721-.063.24.304.342.367.101Z"/>
  <path fill="#6D6C6C" d="M79.961 24.29a82.3 82.3 0 0 0 5.477 1.329 84.42 84.42 0 0 0 6.665 1.125c-2.011 11.37-2.707 15.633-2.947 17.264-.038.304-.304 2.15-.696 4.63a87.747 87.747 0 0 0-.278 1.757c-.582.038-1.176.089-1.758.127-1.505 2.453-2.997 4.907-4.503 7.348a27.246 27.246 0 0 0 6.425 1.922c4.769.81 8.778.19 11.282-.43a293.735 293.735 0 0 0 1.859-5.501c3.794-11.573 4.111-14.735 4.212-16.202.278-4.034.43-6.564-.999-9.422-2.871-5.717-10.852-7.475-11.244-7.538-7.209-1.189-12.572 2.871-13.495 3.592Z" opacity=".18"/>
  <path fill="#6D6C6C" d="M77.748 45.577c-.076.025.165 1.543 1.316 2.39.505.38 1.087.531 1.125.468.05-.076-.72-.43-1.454-1.265-.76-.86-.936-1.619-.987-1.593Z" opacity=".28"/>
  <path fill="#6D6C6C" d="M84.792 49.89a10.422 10.422 0 0 0 3.465 1.947c3.44 1.138 6.463.101 7.488-.29a27.156 27.156 0 0 1-5.54-.254 27.286 27.286 0 0 1-5.413-1.404Z" opacity=".33"/>
  <path fill="#6D6C6C" d="M104.675 31.74a127.844 127.844 0 0 1-3.301 14.04c-2.01 6.841-3.187 8.435-4.313 9.56-3.832 3.807-9.422 3.934-11.964 3.807a38.358 38.358 0 0 0 14.506.342 115.478 115.478 0 0 0 3.39-10.409c2.188-8.069 2.213-11.737 2.074-14.039a37.749 37.749 0 0 0-.392-3.3Z" opacity=".38"/>
  <path fill="#fff" stroke="#191D23" stroke-width=".5" d="M102.196 24.633c2.049.126 3.326 4.236 4.11 6.791.886 2.858 2.897 9.36-.152 15.974-1.846 3.997-4.806 6.5-7.892 9.093a41.23 41.23 0 0 1-4.654 3.377c.063.481.253 2.416-1.024 4.225-1.606 2.301-4.237 2.53-4.591 2.554 1.568-2.061 1.808-2.504 1.745-2.554-.088-.076-.847 1.05-2.112 1.53-1.315.493-2.681.089-3.58-.29a7.456 7.456 0 0 0 2.53-1.734c.519-.543.949-1.163.848-1.264-.14-.152-1.126 1.037-2.492 1.1-.873.038-1.606-.392-2.036-.733.506-.076 1.707-.33 2.77-1.316a5.355 5.355 0 0 0 1.188-1.631 6.555 6.555 0 0 0-1.113-.19 6.88 6.88 0 0 0-2.327.215c1.252-1.606 2.504-2.34 3.428-2.694 1.606-.632 2.656-.367 4.186-1.315.898-.557 1.442-1.227 2.024-2.024 3.048-4.224 5.236-7.234 5.463-11.244.24-4.06-1.808-4.211-1.682-8.309.152-4.743 3.061-9.7 5.363-9.562Z"/>
  <path fill="#191D23" d="M84.313 65.446c1.542.354 3.516-.683 4.464-1.885.152-.19-.114-.455-.266-.265-.847 1.075-2.68 2.1-4.097 1.783-.24-.05-.342.316-.102.367Zm14.253-25.409c1.252-1.48 3.175-1.821 5.009-1.948.177-.012.177-.303 0-.29-1.91.139-3.908.493-5.211 2.036-.114.139.088.341.202.202Z"/>
  <path fill="#191D23" d="M103.461 38.14a10.25 10.25 0 0 1 .139 3.402c-.026.177.265.177.291 0a10.725 10.725 0 0 0-.152-3.478c-.038-.177-.316-.101-.278.076Z"/>
  <path fill="#191D23" d="M98.642 43.174c1.379-1.151 3.162-1.353 4.882-1.53.177-.013.177-.304 0-.291-1.809.177-3.643.417-5.084 1.618-.14.114.063.317.202.203Zm.05-1.897a6.988 6.988 0 0 1 4.946-1.935c.177 0 .177-.279 0-.291a7.221 7.221 0 0 0-5.148 2.01c-.126.14.063.342.202.216Z"/>
  <path fill="#191D23" d="M101.095 38.43c.089.304.178.595.266.899.051.177.329.101.278-.076-.088-.303-.177-.594-.265-.898-.064-.177-.329-.101-.279.076Zm-1.403 2.012c.113.493.19.999.215 1.517.012.178.29.178.29 0a8.64 8.64 0 0 0-.227-1.593c-.05-.177-.316-.101-.278.076Zm3.996-14.557a7.748 7.748 0 0 1-3.642 2.96c-.165.062-.101.34.076.277a8.137 8.137 0 0 0 3.807-3.086c.101-.164-.14-.303-.241-.151Z"/>
  <path fill="#191D23" d="M101.031 28.819c.178.19.418.556.721.48.177-.037.317-.202.456-.303.189-.152.392-.29.581-.443.14-.114 0-.354-.139-.24-.227.177-.455.341-.683.519-.126.1-.215.215-.404.126-.114-.05-.241-.24-.329-.329-.127-.139-.329.063-.203.19Zm4.428 1.151c.088.24.227.455.417.632.139.127.342-.076.202-.202a1.244 1.244 0 0 1-.341-.506c-.063-.165-.329-.089-.278.076Zm1.644 13.785c-2.39 1.037-3.516 3.731-2.605 6.172.063.165.341.102.278-.075-.873-2.34.189-4.857 2.479-5.856.164-.064.025-.317-.152-.24Zm-14.482 10.7c.456.81.86 1.784 1.505 2.454.557.569 1.316.885 2.062 1.113.177.05.253-.215.076-.279-.772-.227-1.53-.556-2.062-1.188-.556-.658-.923-1.518-1.34-2.264-.076-.14-.33.012-.24.164Zm-.113 2.618c.582.91 1.455 1.556 2.504 1.809.177.038.253-.228.076-.278a3.811 3.811 0 0 1-2.34-1.682c-.1-.152-.341-.013-.24.151Zm-4.604-.151c.797.658.962 2.2 1.05 3.162.013.177.303.177.29 0-.088-1.05-.252-2.644-1.125-3.365-.151-.126-.354.076-.215.203Zm1.72-.405a3.9 3.9 0 0 1 .658 1.96c.013.177.29.177.29 0a4.212 4.212 0 0 0-.707-2.112c-.089-.152-.342 0-.24.152Z"/>
  <path fill="#191D23" d="M89.017 59.072c.43-.279.898-.418 1.417-.443.177-.013.19-.291 0-.291a3.08 3.08 0 0 0-1.556.48c-.164.102-.013.355.14.254Zm7.032-6.425a6.38 6.38 0 0 0 2.96 3.06c.164.076.303-.164.138-.24a6.13 6.13 0 0 1-2.858-2.96c-.076-.177-.316-.025-.24.14Z"/>
  <path fill="#191D23" d="M96.466 52.545a20.455 20.455 0 0 1 2.998-3.364c.822-.733 1.669-.101 2.403.392.645.443 1.226.949 1.745 1.518.126.14.329-.063.202-.202a11.01 11.01 0 0 0-1.985-1.683c-.481-.316-1.341-.999-1.948-.746-.304.127-.632.519-.873.734-.354.329-.695.67-1.024 1.012a20.795 20.795 0 0 0-1.77 2.175c-.102.164.15.303.252.164Z"/>
  <path fill="#191D23" d="M99.273 50.067a11.46 11.46 0 0 1 3.124 2.491c.127.14.317-.063.203-.202a11.82 11.82 0 0 0-3.175-2.53c-.164-.088-.303.152-.151.24Zm-.96 2.833a12.43 12.43 0 0 0 1.746 1.808c.139.114.341-.088.202-.202a11.812 11.812 0 0 1-1.745-1.809c-.114-.151-.317.051-.203.203Z"/>
  <path fill="#191D23" d="M98.604 52.786c.152-.215.329-.544.556-.696.367-.24.532-.012.81.177.506.342.986.709 1.454 1.1.139.114.342-.088.203-.202-.342-.29-.696-.569-1.063-.834-.303-.215-.695-.608-1.05-.696-.505-.127-.923.645-1.163.986-.101.165.152.317.253.165Z"/>
  <path fill="#6D6C6C" d="M98.82 26.922c1.213 1.29 3.819 4.44 4.666 9.207.784 4.465-.405 7.93-1.088 9.954-2.542 7.437-8.22 11.395-10.282 12.685-.177.645-.43 1.607-.72 2.795-.406 1.645-.43 1.872-.646 2.328-.873 1.859-2.555 2.491-2.466 2.656.114.19 2.858-.392 4.338-2.656 1.126-1.72.987-3.554.91-4.212a34.35 34.35 0 0 0 6.413-4.667c2.023-1.86 4.136-3.807 5.767-7.133a19.994 19.994 0 0 0 2.011-7.576c.177-2.972-.367-5.16-.911-7.26-.898-3.49-2.086-7.993-4.477-8.296-.468-.051-1.72-.026-3.516 2.175Z" opacity=".25"/>
  <path fill="#6D6C6C" d="M106.609 45.514a39.346 39.346 0 0 1-4.983 6.728c-2.567 2.783-4.819 5.16-8.284 5.666a9.42 9.42 0 0 1-2.276.05c.417.14 1.264.507 1.745 1.354.67 1.189.139 2.53-.24 3.49-.658 1.67-1.809 2.733-2.568 3.29a5.907 5.907 0 0 0 2.226-1.556c1.746-1.974 1.505-4.465 1.455-4.946a34.52 34.52 0 0 0 6.437-4.654c1.847-1.682 3.807-3.503 5.325-6.539a17.244 17.244 0 0 0 1.163-2.883Z" opacity=".28"/>
  <path fill="#fff" stroke="#191D23" stroke-width=".5" d="M77.305 10.998c-.683 2.834.62 5.173 1.682 7.096 1.037 1.884 1.897 3.44 3.807 4.199.177.076 2.706 1.024 5.11-.304 2.668-1.48 3.085-4.604 3.275-6.02.152-1.113.57-4.212-1.454-6.792-2.176-2.77-6.602-4.186-9.612-2.365-2.113 1.29-2.682 3.68-2.808 4.186Z"/>
  <path fill="#064E3B" d="M82.478 6.762c.203.278.582.708 1.164 1.037.986.569 1.948.518 2.327.48.076.519.392 2.252 1.897 3.49.949.785 2.833 1.746 3.858 1.038 1.176-.81.758-3.541-.24-5.223-1.278-2.176-3.744-2.631-5.186-2.922-.885-.177-3.25-.658-3.895.417-.14.215-.33.709.075 1.683Zm-1.479-.797c.265.1.43.164.556.316.57.708-.152 2.694-1.556 3.566-.746.456-1.505.494-1.96.481A5.18 5.18 0 0 1 78 13.174a4.723 4.723 0 0 1-.923 1.682 5.147 5.147 0 0 1-.721-1.366c-.519-1.492-.19-2.808 0-3.516.24-.91.923-3.516 2.921-4.047a3.067 3.067 0 0 1 1.72.038Z"/>
  <path fill="#191D23" d="M76.37 15.248c-.076-.847-.494-5.843 2.959-7.917 3.086-1.86 6.754.114 7.285.392 2.884 1.594 4.363 4.68 4.427 7.475.012.67.075 3.655-1.986 5.413-1.05.898-2.2 1.1-3.731 1.378a15.56 15.56 0 0 1-5.413 0l.227 2.214c2.656.556 4.882.556 6.4.455 2.15-.14 3.794-.556 4.882-.835a30.411 30.411 0 0 0 4.654-1.606 36.05 36.05 0 0 0 .531-6.02c.013-3.541.026-5.881-1.163-8.423-.48-1.025-2.239-4.794-6.463-6.21-4.78-1.607-8.904 1.05-9.612 1.53-.974.658-3.339 2.479-4.427 5.793-.164.493-.974 3.11-.151 6.323 1.264 4.97 5.501 7.753 5.704 7.589-.709-.595-3.757-3.225-4.123-7.55Z"/>
  <path fill="#191D23" d="M81.883 12.984c.405 1.43.721 2.884.962 4.35.037.241.404.14.366-.1a39.259 39.259 0 0 0-.96-4.351c-.064-.228-.43-.127-.368.101Z"/>
  <path fill="#191D23" d="M82.946 17.461a2.978 2.978 0 0 0 2.125-.341c.215-.127.025-.456-.19-.33-.569.33-1.189.43-1.834.304-.24-.05-.341.317-.1.367Zm-2.693-1.594a2.012 2.012 0 0 1-.493-1.77c-.102.025-.216.05-.317.088.24.253.392.544.494.873.038.114.075.24.113.367.026.076.038.164.064.24 0 .114.05.177.177.203-.127-.203-.456-.013-.33.19.077.138.228.201.38.126.203-.089.203-.317.165-.506-.127-.633-.354-1.278-.797-1.758-.089-.101-.291-.05-.316.088a2.41 2.41 0 0 0 .594 2.138c.165.177.43-.102.266-.279Z"/>
  <path fill="#191D23" d="M79.506 14.4c.114.532.29 1.05.531 1.53.101.216.43.026.329-.189a6.262 6.262 0 0 1-.493-1.442c-.051-.24-.418-.139-.367.101Zm6.109-.885a1.514 1.514 0 0 1-.202-1.442c-.089.038-.19.076-.279.114.291.165.33.532.405.822.038.165.076.33.101.494.076.404-.126-.24-.139-.33-.013-.24-.392-.24-.38 0 .013.292.14.646.418.785.215.101.455.013.493-.228.051-.341-.126-.822-.227-1.15-.089-.291-.215-.557-.494-.722-.113-.063-.24 0-.278.114a1.849 1.849 0 0 0 .24 1.733c.152.202.481.013.342-.19Z"/>
  <path fill="#191D23" d="M85.16 12.276c.075.518.202 1.012.404 1.492.089.228.455.127.367-.1a6.678 6.678 0 0 1-.405-1.493c-.025-.24-.392-.14-.367.1Zm-6.805 1.113a1.128 1.128 0 0 1 1.302-.961c.24.038.342-.33.102-.367-.898-.14-1.67.43-1.784 1.328-.038.253.342.24.38 0Zm5.553-2.378c.683-.62 1.644-.607 2.314.013.178.164.443-.101.266-.266-.835-.771-2.01-.784-2.846-.012-.177.164.089.43.266.265Zm-.545 8.664a5.31 5.31 0 0 0 4.262-1.973c.152-.19-.114-.456-.265-.266a4.925 4.925 0 0 1-3.984 1.86c-.266-.013-.266.366-.013.379Z"/>
  <path fill="#191D23" d="M86.969 17.436c.29.063.543.253.645.531.088.228.455.127.366-.101a1.238 1.238 0 0 0-.91-.797c-.24-.05-.342.316-.101.367Z"/>
  <path fill="#6D6C6C" d="M87.588 8.38a26.318 26.318 0 0 1 1.467 6.792c.202 2.618-.14 3.529-.43 4.073-1.025 1.91-3.137 2.567-3.908 2.77.582.012 2.706.012 4.401-1.518 2.036-1.86 1.897-4.566 1.847-5.59-.19-3.68-2.757-5.995-3.377-6.527Z" opacity=".29"/>
</svg>
